<svg version="1.1" xmlns="http://www.w3.org/2000/svg" xmlns:xlink="http://www.w3.org/1999/xlink" width="600" height="600"><defs><clipPath id="HceTApqDtqTP"><path fill="none" stroke="none" d="M 39.5 28.5 L 570.5 28.5 L 570.5 578.5 L 39.5 578.5 L 39.5 28.5"/></clipPath><clipPath id="MnhwpnOTmLGM"><path fill="none" stroke="none" d="M 39.5 28.5 L 570.5 28.5 L 570.5 578.5 L 39.5 578.5 L 39.5 28.5"/></clipPath><clipPath id="TtaNpKTnPTIe"><path fill="none" stroke="none" d="M 39.5 28.5 L 570.5 28.5 L 570.5 578.5 L 39.5 578.5 L 39.5 28.5"/></clipPath><clipPath id="CKWuzKpzZQid"><path fill="none" stroke="none" d="M 39.5 28.5 L 570.5 28.5 L 570.5 578.5 L 39.5 578.5 L 39.5 28.5"/></clipPath><clipPath id="ZwIqsMAFLHnr"><path fill="none" stroke="none" d="M 39.5 28.5 L 570.5 28.5 L 570.5 578.5 L 39.5 578.5 L 39.5 28.5"/></clipPath><clipPath id="CyKaLsfSvpoE"><path fill="none" stroke="none" d="M 39.5 28.5 L 570.5 28.5 L 570.5 578.5 L 39.5 578.5 L 39.5 28.5"/></clipPath><clipPath id="vavmHEmHGZJH"><path fill="none" stroke="none" d="M 39.5 28.5 L 570.5 28.5 L 570.5 578.5 L 39.5 578.5 L 39.5 28.5"/></clipPath><clipPath id="TntzMwsknSFJ"><path fill="none" stroke="none" d="M 39.5 28.5 L 570.5 28.5 L 570.5 578.5 L 39.5 578.5 L 39.5 28.5"/></clipPath><clipPath id="SeFtzMiCIhJe"><path fill="none" stroke="none" d="M 39.5 28.5 L 570.5 28.5 L 570.5 578.5 L 39.5 578.5 L 39.5 28.5"/></clipPath></defs><path fill="rgb(255,255,255)" stroke="none" paint-order="stroke" d="M 0.5 0.5 L 600.5 0.5 L 600.5 600.5 L 0.5 600.5 L 0.5 0.5" fill-opacity="1"/><rect fill="#FFFFFF" stroke="none" x="39" y="28" width="531" height="550" transform="matrix(1, 0, 0, 1, 0.5, 0.5)"/><path fill="rgb(255,255,255)" stroke="none" paint-order="stroke" d="M 39.5 28.5 L 570.5 28.5 L 570.5 578.5 L 39.5 578.5 L 39.5 28.5" fill-opacity="1"/><path fill="none" stroke="rgb(229,229,229)" paint-order="fill" d="M 39.5 28.5 L 570.5 28.5 L 570.5 578.5 L 39.5 578.5 L 39.5 28.5" stroke-opacity="1" stroke-linejoin="bevel" stroke-miterlimit="10" stroke-dasharray=""/><path fill="none" stroke="rgb(229,229,229)" paint-order="fill" d="M 66.5 578.5 L 66.5 28.5 M 174.5 578.5 L 174.5 28.5 M 281.5 578.5 L 281.5 28.5 M 388.5 578.5 L 388.5 28.5 M 496.5 578.5 L 496.5 28.5" stroke-opacity="1" stroke-linejoin="bevel" stroke-miterlimit="10" stroke-dasharray="" clip-path="url(#HceTApqDtqTP)"/><path fill="none" stroke="rgb(229,229,229)" paint-order="fill" d="M 39.5 538.5 L 570.5 538.5 M 39.5 468.5 L 570.5 468.5 M 39.5 399.5 L 570.5 399.5 M 39.5 329.5 L 570.5 329.5 M 39.5 260.5 L 570.5 260.5 M 39.5 191.5 L 570.5 191.5 M 39.5 121.5 L 570.5 121.5 M 39.5 52.5 L 570.5 52.5" stroke-opacity="1" stroke-linejoin="bevel" stroke-miterlimit="10" stroke-dasharray="" clip-path="url(#MnhwpnOTmLGM)"/><path fill="none" stroke="none"/><path fill="rgb(68,1,84)" stroke="none" paint-order="stroke" d="M 146.3925323486328 193.1822967529297 A 2 2 0 1 1 146.3925313486329 193.180296753263" fill-opacity="0.8" clip-path="url(#TtaNpKTnPTIe)"/><path fill="rgb(68,1,84)" stroke="none" paint-order="stroke" d="M 160.09640502929688 202.9508056640625 A 2 2 0 1 1 160.09640402929696 202.94880566439582" fill-opacity="0.8" clip-path="url(#TtaNpKTnPTIe)"/><path fill="rgb(253,231,36)" stroke="none" paint-order="stroke" d="M 185.14202880859375 66.77095794677734 A 2 2 0 1 1 185.14202780859384 66.76895794711068" fill-opacity="0.8" clip-path="url(#TtaNpKTnPTIe)"/><path fill="rgb(68,1,84)" stroke="none" paint-order="stroke" d="M 221.44992065429688 353.8970642089844 A 2 2 0 1 1 221.44991965429696 353.8950642093177" fill-opacity="0.8" clip-path="url(#TtaNpKTnPTIe)"/><path fill="rgb(253,231,36)" stroke="none" paint-order="stroke" d="M 199.60800170898438 197.1392822265625 A 2 2 0 1 1 199.60800070898446 197.13728222689582" fill-opacity="0.8" clip-path="url(#TtaNpKTnPTIe)"/><path fill="rgb(253,231,36)" stroke="none" paint-order="stroke" d="M 193.8546905517578 388.9747619628906 A 2 2 0 1 1 193.8546895517579 388.97276196322395" fill-opacity="0.8" clip-path="url(#TtaNpKTnPTIe)"/><path fill="rgb(68,1,84)" stroke="none" paint-order="stroke" d="M 170.83201599121094 280.3609924316406 A 2 2 0 1 1 170.83201499121103 280.35899243197395" fill-opacity="0.8" clip-path="url(#TtaNpKTnPTIe)"/><path fill="rgb(253,231,36)" stroke="none" paint-order="stroke" d="M 160.15467834472656 305.30517578125 A 2 2 0 1 1 160.15467734472665 305.3031757815833" fill-opacity="0.8" clip-path="url(#TtaNpKTnPTIe)"/><path fill="rgb(68,1,84)" stroke="none" paint-order="stroke" d="M 210.96726989746094 449.1571960449219 A 2 2 0 1 1 210.96726889746103 449.1551960452552" fill-opacity="0.8" clip-path="url(#TtaNpKTnPTIe)"/><path fill="rgb(68,1,84)" stroke="none" paint-order="stroke" d="M 207.61888122558594 309.1726989746094 A 2 2 0 1 1 207.61888022558603 309.1706989749427" fill-opacity="0.8" clip-path="url(#TtaNpKTnPTIe)"/><path fill="rgb(68,1,84)" stroke="none" paint-order="stroke" d="M 159.65538024902344 366.8608703613281 A 2 2 0 1 1 159.65537924902353 366.85887036166145" fill-opacity="0.8" clip-path="url(#TtaNpKTnPTIe)"/><path fill="rgb(68,1,84)" stroke="none" paint-order="stroke" d="M 218.9383544921875 338.25677490234375 A 2 2 0 1 1 218.9383534921876 338.25477490267707" fill-opacity="0.8" clip-path="url(#TtaNpKTnPTIe)"/><path fill="rgb(68,1,84)" stroke="none" paint-order="stroke" d="M 193.86524963378906 431.5244140625 A 2 2 0 1 1 193.86524863378915 431.5224140628333" fill-opacity="0.8" clip-path="url(#TtaNpKTnPTIe)"/><path fill="rgb(253,231,36)" stroke="none" paint-order="stroke" d="M 201.86712646484375 392.9024353027344 A 2 2 0 1 1 201.86712546484384 392.9004353030677" fill-opacity="0.8" clip-path="url(#TtaNpKTnPTIe)"/><path fill="rgb(68,1,84)" stroke="none" paint-order="stroke" d="M 181.3722686767578 424.2377624511719 A 2 2 0 1 1 181.3722676767579 424.2357624515052" fill-opacity="0.8" clip-path="url(#TtaNpKTnPTIe)"/><path fill="rgb(68,1,84)" stroke="none" paint-order="stroke" d="M 158.8064422607422 445.8836364746094 A 2 2 0 1 1 158.80644126074228 445.8816364749427" fill-opacity="0.8" clip-path="url(#TtaNpKTnPTIe)"/><path fill="rgb(253,231,36)" stroke="none" paint-order="stroke" d="M 184.06723022460938 395.4948425292969 A 2 2 0 1 1 184.06722922460946 395.4928425296302" fill-opacity="0.8" clip-path="url(#TtaNpKTnPTIe)"/><path fill="rgb(68,1,84)" stroke="none" paint-order="stroke" d="M 202.65457153320312 177.5465545654297 A 2 2 0 1 1 202.6545705332032 177.544554565763" fill-opacity="0.8" clip-path="url(#TtaNpKTnPTIe)"/><path fill="rgb(68,1,84)" stroke="none" paint-order="stroke" d="M 188.4682159423828 53.5 A 2 2 0 1 1 188.4682149423829 53.498000000333334" fill-opacity="0.8" clip-path="url(#TtaNpKTnPTIe)"/><path fill="rgb(253,231,36)" stroke="none" paint-order="stroke" d="M 167.54437255859375 271.3307800292969 A 2 2 0 1 1 167.54437155859384 271.3287800296302" fill-opacity="0.8" clip-path="url(#TtaNpKTnPTIe)"/><path fill="rgb(253,231,36)" stroke="none" paint-order="stroke" d="M 190.5684356689453 379.21807861328125 A 2 2 0 1 1 190.5684346689454 379.21607861361457" fill-opacity="0.8" clip-path="url(#TtaNpKTnPTIe)"/><path fill="rgb(253,231,36)" stroke="none" paint-order="stroke" d="M 181.04539489746094 165.91183471679688 A 2 2 0 1 1 181.04539389746103 165.9098347171302" fill-opacity="0.8" clip-path="url(#TtaNpKTnPTIe)"/><path fill="rgb(68,1,84)" stroke="none" paint-order="stroke" d="M 181.7424774169922 279.0333251953125 A 2 2 0 1 1 181.74247641699228 279.0313251956458" fill-opacity="0.8" clip-path="url(#TtaNpKTnPTIe)"/><path fill="rgb(253,231,36)" stroke="none" paint-order="stroke" d="M 179.62533569335938 145.9737548828125 A 2 2 0 1 1 179.62533469335946 145.97175488314582" fill-opacity="0.8" clip-path="url(#TtaNpKTnPTIe)"/><path fill="rgb(68,1,84)" stroke="none" paint-order="stroke" d="M 177.09259033203125 268.3785095214844 A 2 2 0 1 1 177.09258933203134 268.3765095218177" fill-opacity="0.8" clip-path="url(#TtaNpKTnPTIe)"/><path fill="rgb(68,1,84)" stroke="none" paint-order="stroke" d="M 193.81210327148438 464.6248779296875 A 2 2 0 1 1 193.81210227148446 464.6228779300208" fill-opacity="0.8" clip-path="url(#TtaNpKTnPTIe)"/><path fill="rgb(68,1,84)" stroke="none" paint-order="stroke" d="M 166.6680908203125 376.60076904296875 A 2 2 0 1 1 166.6680898203126 376.59876904330207" fill-opacity="0.8" clip-path="url(#TtaNpKTnPTIe)"/><path fill="rgb(253,231,36)" stroke="none" paint-order="stroke" d="M 190.61935424804688 328.2398681640625 A 2 2 0 1 1 190.61935324804696 328.2378681643958" fill-opacity="0.8" clip-path="url(#TtaNpKTnPTIe)"/><path fill="rgb(68,1,84)" stroke="none" paint-order="stroke" d="M 191.0667266845703 163.65670776367188 A 2 2 0 1 1 191.0667256845704 163.6547077640052" fill-opacity="0.8" clip-path="url(#TtaNpKTnPTIe)"/><path fill="rgb(253,231,36)" stroke="none" paint-order="stroke" d="M 194.84725952148438 538.796630859375 A 2 2 0 1 1 194.84725852148446 538.7946308597084" fill-opacity="0.8" clip-path="url(#TtaNpKTnPTIe)"/><path fill="rgb(253,231,36)" stroke="none" paint-order="stroke" d="M 179.626220703125 58.26000213623047 A 2 2 0 1 1 179.6262197031251 58.2580021365638" fill-opacity="0.8" clip-path="url(#TtaNpKTnPTIe)"/><path fill="rgb(68,1,84)" stroke="none" paint-order="stroke" d="M 122.54912567138672 303.67376708984375 A 2 2 0 1 1 122.5491246713868 303.67176709017707" fill-opacity="0.8" clip-path="url(#TtaNpKTnPTIe)"/><path fill="rgb(68,1,84)" stroke="none" paint-order="stroke" d="M 202.81101989746094 260.7975158691406 A 2 2 0 1 1 202.81101889746103 260.79551586947395" fill-opacity="0.8" clip-path="url(#TtaNpKTnPTIe)"/><path fill="rgb(68,1,84)" stroke="none" paint-order="stroke" d="M 174.2338104248047 346.86468505859375 A 2 2 0 1 1 174.23380942480478 346.86268505892707" fill-opacity="0.8" clip-path="url(#TtaNpKTnPTIe)"/><path fill="rgb(68,1,84)" stroke="none" paint-order="stroke" d="M 146.84817504882812 544.7308959960938 A 2 2 0 1 1 146.8481740488282 544.7288959964271" fill-opacity="0.8" clip-path="url(#TtaNpKTnPTIe)"/><path fill="rgb(68,1,84)" stroke="none" paint-order="stroke" d="M 214.7822723388672 319.7238464355469 A 2 2 0 1 1 214.78227133886728 319.7218464358802" fill-opacity="0.8" clip-path="url(#TtaNpKTnPTIe)"/><path fill="rgb(68,1,84)" stroke="none" paint-order="stroke" d="M 170.3805389404297 490.9467468261719 A 2 2 0 1 1 170.38053794042978 490.9447468265052" fill-opacity="0.8" clip-path="url(#TtaNpKTnPTIe)"/><path fill="rgb(68,1,84)" stroke="none" paint-order="stroke" d="M 160.6964569091797 263.2013854980469 A 2 2 0 1 1 160.69645590917978 263.1993854983802" fill-opacity="0.8" clip-path="url(#TtaNpKTnPTIe)"/><path fill="rgb(68,1,84)" stroke="none" paint-order="stroke" d="M 202.03311157226562 294.6871337890625 A 2 2 0 1 1 202.0331105722657 294.6851337893958" fill-opacity="0.8" clip-path="url(#TtaNpKTnPTIe)"/><path fill="rgb(68,1,84)" stroke="none" paint-order="stroke" d="M 65.6363639831543 215.77838134765625 A 2 2 0 1 1 65.63636298315438 215.77638134798957" fill-opacity="0.8" clip-path="url(#TtaNpKTnPTIe)"/><path fill="rgb(68,1,84)" stroke="none" paint-order="stroke" d="M 174.08218383789062 310.9025573730469 A 2 2 0 1 1 174.0821828378907 310.9005573733802" fill-opacity="0.8" clip-path="url(#TtaNpKTnPTIe)"/><path fill="rgb(68,1,84)" stroke="none" paint-order="stroke" d="M 178.43272399902344 229.12002563476562 A 2 2 0 1 1 178.43272299902353 229.11802563509895" fill-opacity="0.8" clip-path="url(#TtaNpKTnPTIe)"/><path fill="rgb(68,1,84)" stroke="none" paint-order="stroke" d="M 187.1711883544922 351.4707946777344 A 2 2 0 1 1 187.17118735449228 351.4687946780677" fill-opacity="0.8" clip-path="url(#TtaNpKTnPTIe)"/><path fill="rgb(68,1,84)" stroke="none" paint-order="stroke" d="M 548.3636474609375 553.5 A 2 2 0 1 1 548.3636464609376 553.4980000003334" fill-opacity="0.8" clip-path="url(#TtaNpKTnPTIe)"/><path fill="rgb(68,1,84)" stroke="none" paint-order="stroke" d="M 166.29379272460938 152.4738006591797 A 2 2 0 1 1 166.29379172460946 152.471800659513" fill-opacity="0.8" clip-path="url(#TtaNpKTnPTIe)"/><path fill="rgb(68,1,84)" stroke="none" paint-order="stroke" d="M 166.72154235839844 218.81553649902344 A 2 2 0 1 1 166.72154135839853 218.81353649935676" fill-opacity="0.8" clip-path="url(#TtaNpKTnPTIe)"/><path fill="rgb(68,1,84)" stroke="none" paint-order="stroke" d="M 226.17404174804688 219.14247131347656 A 2 2 0 1 1 226.17404074804696 219.14047131380988" fill-opacity="0.8" clip-path="url(#TtaNpKTnPTIe)"/><path fill="rgb(253,231,36)" stroke="none" paint-order="stroke" d="M 188.60743713378906 273.5849609375 A 2 2 0 1 1 188.60743613378915 273.5829609378333" fill-opacity="0.8" clip-path="url(#TtaNpKTnPTIe)"/><path fill="rgb(68,1,84)" stroke="none" paint-order="stroke" d="M 168.2523193359375 187.53514099121094 A 2 2 0 1 1 168.2523183359376 187.53314099154426" fill-opacity="0.8" clip-path="url(#TtaNpKTnPTIe)"/><path fill="rgb(68,1,84)" stroke="none" paint-order="stroke" d="M 197.9022216796875 550.4014282226562 A 2 2 0 1 1 197.9022206796876 550.3994282229896" fill-opacity="0.8" clip-path="url(#TtaNpKTnPTIe)"/><path fill="rgb(68,1,84)" stroke="none" paint-order="stroke" d="M 168.60745239257812 472.3151550292969 A 2 2 0 1 1 168.6074513925782 472.3131550296302" fill-opacity="0.8" clip-path="url(#TtaNpKTnPTIe)"/><path fill="rgb(68,1,84)" stroke="none" paint-order="stroke" d="M 167.32720947265625 313.22088623046875 A 2 2 0 1 1 167.32720847265634 313.21888623080207" fill-opacity="0.8" clip-path="url(#TtaNpKTnPTIe)"/><path fill="rgb(68,1,84)" stroke="none" paint-order="stroke" d="M 145.69009399414062 352.5598449707031 A 2 2 0 1 1 145.6900929941407 352.55784497103645" fill-opacity="0.8" clip-path="url(#TtaNpKTnPTIe)"/><path fill="rgb(68,1,84)" stroke="none" paint-order="stroke" d="M 144.0506591796875 324.3029479980469 A 2 2 0 1 1 144.0506581796876 324.3009479983802" fill-opacity="0.8" clip-path="url(#TtaNpKTnPTIe)"/><path fill="rgb(68,1,84)" stroke="none" paint-order="stroke" d="M 160.29611206054688 523.5062866210938 A 2 2 0 1 1 160.29611106054696 523.5042866214271" fill-opacity="0.8" clip-path="url(#TtaNpKTnPTIe)"/><path fill="rgb(68,1,84)" stroke="none" paint-order="stroke" d="M 140.13668823242188 366.5294189453125 A 2 2 0 1 1 140.13668723242196 366.5274189456458" fill-opacity="0.8" clip-path="url(#TtaNpKTnPTIe)"/><path fill="rgb(68,1,84)" stroke="none" paint-order="stroke" d="M 143.64332580566406 535.4437255859375 A 2 2 0 1 1 143.64332480566415 535.4417255862709" fill-opacity="0.8" clip-path="url(#TtaNpKTnPTIe)"/><path fill="rgb(68,1,84)" stroke="none" paint-order="stroke" d="M 123.3365249633789 366.7560729980469 A 2 2 0 1 1 123.336523963379 366.7540729983802" fill-opacity="0.8" clip-path="url(#TtaNpKTnPTIe)"/><path fill="rgb(68,1,84)" stroke="none" paint-order="stroke" d="M 153.5728759765625 354.0622253417969 A 2 2 0 1 1 153.5728749765626 354.0602253421302" fill-opacity="0.8" clip-path="url(#TtaNpKTnPTIe)"/><path fill="rgb(68,1,84)" stroke="none" paint-order="stroke" d="M 150.33102416992188 299.2896423339844 A 2 2 0 1 1 150.33102316992196 299.2876423343177" fill-opacity="0.8" clip-path="url(#TtaNpKTnPTIe)"/><path fill="rgb(68,1,84)" stroke="none" paint-order="stroke" d="M 150.5424041748047 337.9129333496094 A 2 2 0 1 1 150.54240317480478 337.9109333499427" fill-opacity="0.8" clip-path="url(#TtaNpKTnPTIe)"/><path fill="rgb(68,1,84)" stroke="none" paint-order="stroke" d="M 152.82029724121094 391.1575927734375 A 2 2 0 1 1 152.82029624121103 391.1555927737708" fill-opacity="0.8" clip-path="url(#TtaNpKTnPTIe)"/><path fill="none" stroke="none"/><text fill="rgb(68,68,68)" stroke="none" font-family="helvetica" font-size="9pt" font-style="normal" font-weight="normal" text-decoration="normal" x="0" y="0" text-anchor="start" dominant-baseline="text-after-edge" transform="matrix(1, 0, 0, 1, 149.3925323486328, 188.1822967529297)" fill-opacity="1">open regions</text><path fill="none" stroke="none"/><text fill="rgb(68,68,68)" stroke="none" font-family="helvetica" font-size="9pt" font-style="normal" font-weight="normal" text-decoration="normal" x="0" y="0" text-anchor="start" dominant-baseline="text-after-edge" transform="matrix(1, 0, 0, 1, 163.09640502929688, 197.9508056640625)" fill-opacity="1">super_enhancer</text><path fill="none" stroke="none"/><text fill="rgb(68,68,68)" stroke="none" font-family="helvetica" font-size="9pt" font-style="normal" font-weight="normal" text-decoration="normal" x="0" y="0" text-anchor="start" dominant-baseline="text-after-edge" transform="matrix(1, 0, 0, 1, 188.14202880859375, 61.770957946777344)" fill-opacity="1">FLAG_MEF2D</text><path fill="none" stroke="none"/><text fill="rgb(68,68,68)" stroke="none" font-family="helvetica" font-size="9pt" font-style="normal" font-weight="normal" text-decoration="normal" x="0" y="0" text-anchor="start" dominant-baseline="text-after-edge" transform="matrix(1, 0, 0, 1, 224.44992065429688, 348.8970642089844)" fill-opacity="1">TFAP4</text><path fill="none" stroke="none"/><text fill="rgb(68,68,68)" stroke="none" font-family="helvetica" font-size="9pt" font-style="normal" font-weight="normal" text-decoration="normal" x="0" y="0" text-anchor="start" dominant-baseline="text-after-edge" transform="matrix(1, 0, 0, 1, 202.60800170898438, 192.1392822265625)" fill-opacity="1">FLI1</text><path fill="none" stroke="none"/><text fill="rgb(68,68,68)" stroke="none" font-family="helvetica" font-size="9pt" font-style="normal" font-weight="normal" text-decoration="normal" x="0" y="0" text-anchor="start" dominant-baseline="text-after-edge" transform="matrix(1, 0, 0, 1, 196.8546905517578, 383.9747619628906)" fill-opacity="1">RUNX1</text><path fill="none" stroke="none"/><text fill="rgb(68,68,68)" stroke="none" font-family="helvetica" font-size="9pt" font-style="normal" font-weight="normal" text-decoration="normal" x="0" y="0" text-anchor="start" dominant-baseline="text-after-edge" transform="matrix(1, 0, 0, 1, 173.83201599121094, 275.3609924316406)" fill-opacity="1">MAX</text><path fill="none" stroke="none"/><text fill="rgb(68,68,68)" stroke="none" font-family="helvetica" font-size="9pt" font-style="normal" font-weight="normal" text-decoration="normal" x="0" y="0" text-anchor="start" dominant-baseline="text-after-edge" transform="matrix(1, 0, 0, 1, 163.15467834472656, 300.30517578125)" fill-opacity="1">LMO2</text><path fill="none" stroke="none"/><text fill="rgb(68,68,68)" stroke="none" font-family="helvetica" font-size="9pt" font-style="normal" font-weight="normal" text-decoration="normal" x="0" y="0" text-anchor="start" dominant-baseline="text-after-edge" transform="matrix(1, 0, 0, 1, 213.96726989746094, 444.1571960449219)" fill-opacity="1">PLAGL2</text><path fill="none" stroke="none"/><text fill="rgb(68,68,68)" stroke="none" font-family="helvetica" font-size="9pt" font-style="normal" font-weight="normal" text-decoration="normal" x="0" y="0" text-anchor="start" dominant-baseline="text-after-edge" transform="matrix(1, 0, 0, 1, 210.61888122558594, 304.1726989746094)" fill-opacity="1">FOSL2</text><path fill="none" stroke="none"/><text fill="rgb(68,68,68)" stroke="none" font-family="helvetica" font-size="9pt" font-style="normal" font-weight="normal" text-decoration="normal" x="0" y="0" text-anchor="start" dominant-baseline="text-after-edge" transform="matrix(1, 0, 0, 1, 162.65538024902344, 361.8608703613281)" fill-opacity="1">SP1</text><path fill="none" stroke="none"/><text fill="rgb(68,68,68)" stroke="none" font-family="helvetica" font-size="9pt" font-style="normal" font-weight="normal" text-decoration="normal" x="0" y="0" text-anchor="start" dominant-baseline="text-after-edge" transform="matrix(1, 0, 0, 1, 221.9383544921875, 333.25677490234375)" fill-opacity="1">RXRA</text><path fill="none" stroke="none"/><text fill="rgb(68,68,68)" stroke="none" font-family="helvetica" font-size="9pt" font-style="normal" font-weight="normal" text-decoration="normal" x="0" y="0" text-anchor="start" dominant-baseline="text-after-edge" transform="matrix(1, 0, 0, 1, 196.86524963378906, 426.5244140625)" fill-opacity="1">LYL1</text><path fill="none" stroke="none"/><text fill="rgb(68,68,68)" stroke="none" font-family="helvetica" font-size="9pt" font-style="normal" font-weight="normal" text-decoration="normal" x="0" y="0" text-anchor="start" dominant-baseline="text-after-edge" transform="matrix(1, 0, 0, 1, 204.86712646484375, 387.9024353027344)" fill-opacity="1">FLAG_GFI1</text><path fill="none" stroke="none"/><text fill="rgb(68,68,68)" stroke="none" font-family="helvetica" font-size="9pt" font-style="normal" font-weight="normal" text-decoration="normal" x="0" y="0" text-anchor="start" dominant-baseline="text-after-edge" transform="matrix(1, 0, 0, 1, 184.3722686767578, 419.2377624511719)" fill-opacity="1">HOXA9</text><path fill="none" stroke="none"/><text fill="rgb(68,68,68)" stroke="none" font-family="helvetica" font-size="9pt" font-style="normal" font-weight="normal" text-decoration="normal" x="0" y="0" text-anchor="start" dominant-baseline="text-after-edge" transform="matrix(1, 0, 0, 1, 161.8064422607422, 440.8836364746094)" fill-opacity="1">STAT5B</text><path fill="none" stroke="none"/><text fill="rgb(68,68,68)" stroke="none" font-family="helvetica" font-size="9pt" font-style="normal" font-weight="normal" text-decoration="normal" x="0" y="0" text-anchor="start" dominant-baseline="text-after-edge" transform="matrix(1, 0, 0, 1, 187.06723022460938, 390.4948425292969)" fill-opacity="1">MEIS1</text><path fill="none" stroke="none"/><text fill="rgb(68,68,68)" stroke="none" font-family="helvetica" font-size="9pt" font-style="normal" font-weight="normal" text-decoration="normal" x="0" y="0" text-anchor="start" dominant-baseline="text-after-edge" transform="matrix(1, 0, 0, 1, 205.65457153320312, 172.5465545654297)" fill-opacity="1">ETV6</text><path fill="none" stroke="none"/><text fill="rgb(68,68,68)" stroke="none" font-family="helvetica" font-size="9pt" font-style="normal" font-weight="normal" text-decoration="normal" x="0" y="0" text-anchor="start" dominant-baseline="text-after-edge" transform="matrix(1, 0, 0, 1, 191.4682159423828, 48.5)" fill-opacity="1">ZNF281</text><path fill="none" stroke="none"/><text fill="rgb(68,68,68)" stroke="none" font-family="helvetica" font-size="9pt" font-style="normal" font-weight="normal" text-decoration="normal" x="0" y="0" text-anchor="start" dominant-baseline="text-after-edge" transform="matrix(1, 0, 0, 1, 170.54437255859375, 266.3307800292969)" fill-opacity="1">MYC</text><path fill="none" stroke="none"/><text fill="rgb(68,68,68)" stroke="none" font-family="helvetica" font-size="9pt" font-style="normal" font-weight="normal" text-decoration="normal" x="0" y="0" text-anchor="start" dominant-baseline="text-after-edge" transform="matrix(1, 0, 0, 1, 193.5684356689453, 374.21807861328125)" fill-opacity="1">RUNX2</text><path fill="none" stroke="none"/><text fill="rgb(68,68,68)" stroke="none" font-family="helvetica" font-size="9pt" font-style="normal" font-weight="normal" text-decoration="normal" x="0" y="0" text-anchor="start" dominant-baseline="text-after-edge" transform="matrix(1, 0, 0, 1, 184.04539489746094, 160.91183471679688)" fill-opacity="1">SPI1</text><path fill="none" stroke="none"/><text fill="rgb(68,68,68)" stroke="none" font-family="helvetica" font-size="9pt" font-style="normal" font-weight="normal" text-decoration="normal" x="0" y="0" text-anchor="start" dominant-baseline="text-after-edge" transform="matrix(1, 0, 0, 1, 184.7424774169922, 274.0333251953125)" fill-opacity="1">ZMYND8</text><path fill="none" stroke="none"/><text fill="rgb(68,68,68)" stroke="none" font-family="helvetica" font-size="9pt" font-style="normal" font-weight="normal" text-decoration="normal" x="0" y="0" text-anchor="start" dominant-baseline="text-after-edge" transform="matrix(1, 0, 0, 1, 182.62533569335938, 140.9737548828125)" fill-opacity="1">IRF8</text><path fill="none" stroke="none"/><text fill="rgb(68,68,68)" stroke="none" font-family="helvetica" font-size="9pt" font-style="normal" font-weight="normal" text-decoration="normal" x="0" y="0" text-anchor="start" dominant-baseline="text-after-edge" transform="matrix(1, 0, 0, 1, 180.09259033203125, 263.3785095214844)" fill-opacity="1">ZEB2</text><path fill="none" stroke="none"/><text fill="rgb(68,68,68)" stroke="none" font-family="helvetica" font-size="9pt" font-style="normal" font-weight="normal" text-decoration="normal" x="0" y="0" text-anchor="start" dominant-baseline="text-after-edge" transform="matrix(1, 0, 0, 1, 196.81210327148438, 459.6248779296875)" fill-opacity="1">GATA2</text><path fill="none" stroke="none"/><text fill="rgb(68,68,68)" stroke="none" font-family="helvetica" font-size="9pt" font-style="normal" font-weight="normal" text-decoration="normal" x="0" y="0" text-anchor="start" dominant-baseline="text-after-edge" transform="matrix(1, 0, 0, 1, 169.6680908203125, 371.60076904296875)" fill-opacity="1">E2F3</text><path fill="none" stroke="none"/><text fill="rgb(68,68,68)" stroke="none" font-family="helvetica" font-size="9pt" font-style="normal" font-weight="normal" text-decoration="normal" x="0" y="0" text-anchor="start" dominant-baseline="text-after-edge" transform="matrix(1, 0, 0, 1, 193.61935424804688, 323.2398681640625)" fill-opacity="1">MYB</text><path fill="none" stroke="none"/><text fill="rgb(68,68,68)" stroke="none" font-family="helvetica" font-size="9pt" font-style="normal" font-weight="normal" text-decoration="normal" x="0" y="0" text-anchor="start" dominant-baseline="text-after-edge" transform="matrix(1, 0, 0, 1, 194.0667266845703, 158.65670776367188)" fill-opacity="1">SREBF1</text><path fill="none" stroke="none"/><text fill="rgb(68,68,68)" stroke="none" font-family="helvetica" font-size="9pt" font-style="normal" font-weight="normal" text-decoration="normal" x="0" y="0" text-anchor="start" dominant-baseline="text-after-edge" transform="matrix(1, 0, 0, 1, 197.84725952148438, 533.796630859375)" fill-opacity="1">CEBPA</text><path fill="none" stroke="none"/><text fill="rgb(68,68,68)" stroke="none" font-family="helvetica" font-size="9pt" font-style="normal" font-weight="normal" text-decoration="normal" x="0" y="0" text-anchor="start" dominant-baseline="text-after-edge" transform="matrix(1, 0, 0, 1, 182.626220703125, 53.26000213623047)" fill-opacity="1">MEF2C</text><path fill="none" stroke="none"/><text fill="rgb(68,68,68)" stroke="none" font-family="helvetica" font-size="9pt" font-style="normal" font-weight="normal" text-decoration="normal" x="0" y="0" text-anchor="start" dominant-baseline="text-after-edge" transform="matrix(1, 0, 0, 1, 125.54912567138672, 298.67376708984375)" fill-opacity="1">MLL_KTM2A</text><path fill="none" stroke="none"/><text fill="rgb(68,68,68)" stroke="none" font-family="helvetica" font-size="9pt" font-style="normal" font-weight="normal" text-decoration="normal" x="0" y="0" text-anchor="start" dominant-baseline="text-after-edge" transform="matrix(1, 0, 0, 1, 205.81101989746094, 255.79751586914062)" fill-opacity="1">MYBL2</text><path fill="none" stroke="none"/><text fill="rgb(68,68,68)" stroke="none" font-family="helvetica" font-size="9pt" font-style="normal" font-weight="normal" text-decoration="normal" x="0" y="0" text-anchor="start" dominant-baseline="text-after-edge" transform="matrix(1, 0, 0, 1, 177.2338104248047, 341.86468505859375)" fill-opacity="1">POLII</text><path fill="none" stroke="none"/><text fill="rgb(68,68,68)" stroke="none" font-family="helvetica" font-size="9pt" font-style="normal" font-weight="normal" text-decoration="normal" x="0" y="0" text-anchor="start" dominant-baseline="text-after-edge" transform="matrix(1, 0, 0, 1, 149.84817504882812, 539.7308959960938)" fill-opacity="1">PSER2</text><path fill="none" stroke="none"/><text fill="rgb(68,68,68)" stroke="none" font-family="helvetica" font-size="9pt" font-style="normal" font-weight="normal" text-decoration="normal" x="0" y="0" text-anchor="start" dominant-baseline="text-after-edge" transform="matrix(1, 0, 0, 1, 217.7822723388672, 314.7238464355469)" fill-opacity="1">RARA</text><path fill="none" stroke="none"/><text fill="rgb(68,68,68)" stroke="none" font-family="helvetica" font-size="9pt" font-style="normal" font-weight="normal" text-decoration="normal" x="0" y="0" text-anchor="start" dominant-baseline="text-after-edge" transform="matrix(1, 0, 0, 1, 173.3805389404297, 485.9467468261719)" fill-opacity="1">cohesin</text><path fill="none" stroke="none"/><text fill="rgb(68,68,68)" stroke="none" font-family="helvetica" font-size="9pt" font-style="normal" font-weight="normal" text-decoration="normal" x="0" y="0" text-anchor="start" dominant-baseline="text-after-edge" transform="matrix(1, 0, 0, 1, 163.6964569091797, 258.2013854980469)" fill-opacity="1">WDR5</text><path fill="none" stroke="none"/><text fill="rgb(68,68,68)" stroke="none" font-family="helvetica" font-size="9pt" font-style="normal" font-weight="normal" text-decoration="normal" x="0" y="0" text-anchor="start" dominant-baseline="text-after-edge" transform="matrix(1, 0, 0, 1, 205.03311157226562, 289.6871337890625)" fill-opacity="1">JUND</text><path fill="none" stroke="none"/><text fill="rgb(68,68,68)" stroke="none" font-family="helvetica" font-size="9pt" font-style="normal" font-weight="normal" text-decoration="normal" x="0" y="0" text-anchor="start" dominant-baseline="text-after-edge" transform="matrix(1, 0, 0, 1, 68.6363639831543, 210.77838134765625)" fill-opacity="1">LDB1</text><path fill="none" stroke="none"/><text fill="rgb(68,68,68)" stroke="none" font-family="helvetica" font-size="9pt" font-style="normal" font-weight="normal" text-decoration="normal" x="0" y="0" text-anchor="start" dominant-baseline="text-after-edge" transform="matrix(1, 0, 0, 1, 177.08218383789062, 305.9025573730469)" fill-opacity="1">mediator</text><path fill="none" stroke="none"/><text fill="rgb(68,68,68)" stroke="none" font-family="helvetica" font-size="9pt" font-style="normal" font-weight="normal" text-decoration="normal" x="0" y="0" text-anchor="start" dominant-baseline="text-after-edge" transform="matrix(1, 0, 0, 1, 181.43272399902344, 224.12002563476562)" fill-opacity="1">IKZF1</text><path fill="none" stroke="none"/><text fill="rgb(68,68,68)" stroke="none" font-family="helvetica" font-size="9pt" font-style="normal" font-weight="normal" text-decoration="normal" x="0" y="0" text-anchor="start" dominant-baseline="text-after-edge" transform="matrix(1, 0, 0, 1, 190.1711883544922, 346.4707946777344)" fill-opacity="1">FOXP1</text><path fill="none" stroke="none"/><text fill="rgb(68,68,68)" stroke="none" font-family="helvetica" font-size="9pt" font-style="normal" font-weight="normal" text-decoration="normal" x="0" y="0" text-anchor="start" dominant-baseline="text-after-edge" transform="matrix(1, 0, 0, 1, 551.3636474609375, 548.5)" fill-opacity="1">GSE1</text><path fill="none" stroke="none"/><text fill="rgb(68,68,68)" stroke="none" font-family="helvetica" font-size="9pt" font-style="normal" font-weight="normal" text-decoration="normal" x="0" y="0" text-anchor="start" dominant-baseline="text-after-edge" transform="matrix(1, 0, 0, 1, 169.29379272460938, 147.4738006591797)" fill-opacity="1">AFF4</text><path fill="none" stroke="none"/><text fill="rgb(68,68,68)" stroke="none" font-family="helvetica" font-size="9pt" font-style="normal" font-weight="normal" text-decoration="normal" x="0" y="0" text-anchor="start" dominant-baseline="text-after-edge" transform="matrix(1, 0, 0, 1, 169.72154235839844, 213.81553649902344)" fill-opacity="1">BRD4</text><path fill="none" stroke="none"/><text fill="rgb(68,68,68)" stroke="none" font-family="helvetica" font-size="9pt" font-style="normal" font-weight="normal" text-decoration="normal" x="0" y="0" text-anchor="start" dominant-baseline="text-after-edge" transform="matrix(1, 0, 0, 1, 229.17404174804688, 214.14247131347656)" fill-opacity="1">CDK13</text><path fill="none" stroke="none"/><text fill="rgb(68,68,68)" stroke="none" font-family="helvetica" font-size="9pt" font-style="normal" font-weight="normal" text-decoration="normal" x="0" y="0" text-anchor="start" dominant-baseline="text-after-edge" transform="matrix(1, 0, 0, 1, 191.60743713378906, 268.5849609375)" fill-opacity="1">IRF2BP2</text><path fill="none" stroke="none"/><text fill="rgb(68,68,68)" stroke="none" font-family="helvetica" font-size="9pt" font-style="normal" font-weight="normal" text-decoration="normal" x="0" y="0" text-anchor="start" dominant-baseline="text-after-edge" transform="matrix(1, 0, 0, 1, 171.2523193359375, 182.53514099121094)" fill-opacity="1">CDK9</text><path fill="none" stroke="none"/><text fill="rgb(68,68,68)" stroke="none" font-family="helvetica" font-size="9pt" font-style="normal" font-weight="normal" text-decoration="normal" x="0" y="0" text-anchor="start" dominant-baseline="text-after-edge" transform="matrix(1, 0, 0, 1, 200.9022216796875, 545.4014282226562)" fill-opacity="1">CEBPB</text><path fill="none" stroke="none"/><text fill="rgb(68,68,68)" stroke="none" font-family="helvetica" font-size="9pt" font-style="normal" font-weight="normal" text-decoration="normal" x="0" y="0" text-anchor="start" dominant-baseline="text-after-edge" transform="matrix(1, 0, 0, 1, 171.60745239257812, 467.3151550292969)" fill-opacity="1">CTCF</text><path fill="none" stroke="none"/><text fill="rgb(68,68,68)" stroke="none" font-family="helvetica" font-size="9pt" font-style="normal" font-weight="normal" text-decoration="normal" x="0" y="0" text-anchor="start" dominant-baseline="text-after-edge" transform="matrix(1, 0, 0, 1, 170.32720947265625, 308.22088623046875)" fill-opacity="1">ELF2</text><path fill="none" stroke="none"/><text fill="rgb(68,68,68)" stroke="none" font-family="helvetica" font-size="9pt" font-style="normal" font-weight="normal" text-decoration="normal" x="0" y="0" text-anchor="start" dominant-baseline="text-after-edge" transform="matrix(1, 0, 0, 1, 148.69009399414062, 347.5598449707031)" fill-opacity="1">H3K18</text><path fill="none" stroke="none"/><text fill="rgb(68,68,68)" stroke="none" font-family="helvetica" font-size="9pt" font-style="normal" font-weight="normal" text-decoration="normal" x="0" y="0" text-anchor="start" dominant-baseline="text-after-edge" transform="matrix(1, 0, 0, 1, 147.0506591796875, 319.3029479980469)" fill-opacity="1">H3K27ac</text><path fill="none" stroke="none"/><text fill="rgb(68,68,68)" stroke="none" font-family="helvetica" font-size="9pt" font-style="normal" font-weight="normal" text-decoration="normal" x="0" y="0" text-anchor="start" dominant-baseline="text-after-edge" transform="matrix(1, 0, 0, 1, 163.29611206054688, 518.5062866210938)" fill-opacity="1">H3K27me3</text><path fill="none" stroke="none"/><text fill="rgb(68,68,68)" stroke="none" font-family="helvetica" font-size="9pt" font-style="normal" font-weight="normal" text-decoration="normal" x="0" y="0" text-anchor="start" dominant-baseline="text-after-edge" transform="matrix(1, 0, 0, 1, 143.13668823242188, 361.5294189453125)" fill-opacity="1">H3K36me2</text><path fill="none" stroke="none"/><text fill="rgb(68,68,68)" stroke="none" font-family="helvetica" font-size="9pt" font-style="normal" font-weight="normal" text-decoration="normal" x="0" y="0" text-anchor="start" dominant-baseline="text-after-edge" transform="matrix(1, 0, 0, 1, 146.64332580566406, 530.4437255859375)" fill-opacity="1">H3K36me3</text><path fill="none" stroke="none"/><text fill="rgb(68,68,68)" stroke="none" font-family="helvetica" font-size="9pt" font-style="normal" font-weight="normal" text-decoration="normal" x="0" y="0" text-anchor="start" dominant-baseline="text-after-edge" transform="matrix(1, 0, 0, 1, 126.3365249633789, 361.7560729980469)" fill-opacity="1">H3K4me1</text><path fill="none" stroke="none"/><text fill="rgb(68,68,68)" stroke="none" font-family="helvetica" font-size="9pt" font-style="normal" font-weight="normal" text-decoration="normal" x="0" y="0" text-anchor="start" dominant-baseline="text-after-edge" transform="matrix(1, 0, 0, 1, 156.5728759765625, 349.0622253417969)" fill-opacity="1">H3K4me3</text><path fill="none" stroke="none"/><text fill="rgb(68,68,68)" stroke="none" font-family="helvetica" font-size="9pt" font-style="normal" font-weight="normal" text-decoration="normal" x="0" y="0" text-anchor="start" dominant-baseline="text-after-edge" transform="matrix(1, 0, 0, 1, 153.33102416992188, 294.2896423339844)" fill-opacity="1">H3K79me2</text><path fill="none" stroke="none"/><text fill="rgb(68,68,68)" stroke="none" font-family="helvetica" font-size="9pt" font-style="normal" font-weight="normal" text-decoration="normal" x="0" y="0" text-anchor="start" dominant-baseline="text-after-edge" transform="matrix(1, 0, 0, 1, 153.5424041748047, 332.9129333496094)" fill-opacity="1">H3K9ac</text><path fill="none" stroke="none"/><text fill="rgb(68,68,68)" stroke="none" font-family="helvetica" font-size="9pt" font-style="normal" font-weight="normal" text-decoration="normal" x="0" y="0" text-anchor="start" dominant-baseline="text-after-edge" transform="matrix(1, 0, 0, 1, 155.82029724121094, 386.1575927734375)" fill-opacity="1">promoter</text><path fill="none" stroke="rgb(0,0,0)" paint-order="fill" d="M 39.5 578.5 L 570.5 578.5" stroke-opacity="1" stroke-linejoin="bevel" stroke-miterlimit="10" stroke-dasharray=""/><path fill="none" stroke="rgb(0,0,0)" paint-order="fill" d="M 66.5 584.5 L 66.5 576.5 M 174.5 584.5 L 174.5 576.5 M 281.5 584.5 L 281.5 576.5 M 388.5 584.5 L 388.5 576.5 M 496.5 584.5 L 496.5 576.5" stroke-opacity="1" stroke-linejoin="bevel" stroke-miterlimit="10" stroke-dasharray=""/><path fill="none" stroke="rgb(0,0,0)" paint-order="fill" d="M 45.5 582.5 L 45.5 578.5 M 66.5 582.5 L 66.5 578.5 M 88.5 582.5 L 88.5 578.5 M 109.5 582.5 L 109.5 578.5 M 131.5 582.5 L 131.5 578.5 M 152.5 582.5 L 152.5 578.5 M 174.5 582.5 L 174.5 578.5 M 195.5 582.5 L 195.5 578.5 M 217.5 582.5 L 217.5 578.5 M 238.5 582.5 L 238.5 578.5 M 260.5 582.5 L 260.5 578.5 M 281.5 582.5 L 281.5 578.5 M 303.5 582.5 L 303.5 578.5 M 324.5 582.5 L 324.5 578.5 M 345.5 582.5 L 345.5 578.5 M 367.5 582.5 L 367.5 578.5 M 388.5 582.5 L 388.5 578.5 M 410.5 582.5 L 410.5 578.5 M 431.5 582.5 L 431.5 578.5 M 453.5 582.5 L 453.5 578.5 M 474.5 582.5 L 474.5 578.5 M 496.5 582.5 L 496.5 578.5 M 517.5 582.5 L 517.5 578.5 M 539.5 582.5 L 539.5 578.5 M 560.5 582.5 L 560.5 578.5" stroke-opacity="1" stroke-linejoin="bevel" stroke-miterlimit="10" stroke-dasharray=""/><text fill="rgb(68,68,68)" stroke="none" font-family="helvetica" font-size="11px" font-style="normal" font-weight="normal" text-decoration="normal" x="50.994582176208496" y="597" text-anchor="start" dominant-baseline="alphabetic" transform="matrix(1, 0, 0, 1, 0.5, 0.5)" fill-opacity="1">−1000</text><text fill="rgb(68,68,68)" stroke="none" font-family="helvetica" font-size="11px" font-style="normal" font-weight="normal" text-decoration="normal" x="170.6822214126587" y="597" text-anchor="start" dominant-baseline="alphabetic" transform="matrix(1, 0, 0, 1, 0.5, 0.5)" fill-opacity="1">0</text><text fill="rgb(68,68,68)" stroke="none" font-family="helvetica" font-size="11px" font-style="normal" font-weight="normal" text-decoration="normal" x="268.81152725219727" y="597" text-anchor="start" dominant-baseline="alphabetic" transform="matrix(1, 0, 0, 1, 0.5, 0.5)" fill-opacity="1">1000</text><text fill="rgb(68,68,68)" stroke="none" font-family="helvetica" font-size="11px" font-style="normal" font-weight="normal" text-decoration="normal" x="376.11584854125977" y="597" text-anchor="start" dominant-baseline="alphabetic" transform="matrix(1, 0, 0, 1, 0.5, 0.5)" fill-opacity="1">2000</text><text fill="rgb(68,68,68)" stroke="none" font-family="helvetica" font-size="11px" font-style="normal" font-weight="normal" text-decoration="normal" x="483.42016983032227" y="597" text-anchor="start" dominant-baseline="alphabetic" transform="matrix(1, 0, 0, 1, 0.5, 0.5)" fill-opacity="1">3000</text><path fill="none" stroke="rgb(0,0,0)" paint-order="fill" d="M 39.5 578.5 L 39.5 28.5" stroke-opacity="1" stroke-linejoin="bevel" stroke-miterlimit="10" stroke-dasharray=""/><path fill="none" stroke="rgb(0,0,0)" paint-order="fill" d="M 33.5 538.5 L 41.5 538.5 M 33.5 468.5 L 41.5 468.5 M 33.5 399.5 L 41.5 399.5 M 33.5 329.5 L 41.5 329.5 M 33.5 260.5 L 41.5 260.5 M 33.5 191.5 L 41.5 191.5 M 33.5 121.5 L 41.5 121.5 M 33.5 52.5 L 41.5 52.5" stroke-opacity="1" stroke-linejoin="bevel" stroke-miterlimit="10" stroke-dasharray=""/><path fill="none" stroke="rgb(0,0,0)" paint-order="fill" d="M 35.5 552.5 L 39.5 552.5 M 35.5 565.5 L 39.5 565.5 M 35.5 538.5 L 39.5 538.5 M 35.5 524.5 L 39.5 524.5 M 35.5 510.5 L 39.5 510.5 M 35.5 496.5 L 39.5 496.5 M 35.5 482.5 L 39.5 482.5 M 35.5 468.5 L 39.5 468.5 M 35.5 454.5 L 39.5 454.5 M 35.5 440.5 L 39.5 440.5 M 35.5 427.5 L 39.5 427.5 M 35.5 413.5 L 39.5 413.5 M 35.5 399.5 L 39.5 399.5 M 35.5 385.5 L 39.5 385.5 M 35.5 371.5 L 39.5 371.5 M 35.5 357.5 L 39.5 357.5 M 35.5 343.5 L 39.5 343.5 M 35.5 329.5 L 39.5 329.5 M 35.5 316.5 L 39.5 316.5 M 35.5 302.5 L 39.5 302.5 M 35.5 288.5 L 39.5 288.5 M 35.5 274.5 L 39.5 274.5 M 35.5 260.5 L 39.5 260.5 M 35.5 246.5 L 39.5 246.5 M 35.5 232.5 L 39.5 232.5 M 35.5 218.5 L 39.5 218.5 M 35.5 205.5 L 39.5 205.5 M 35.5 191.5 L 39.5 191.5 M 35.5 177.5 L 39.5 177.5 M 35.5 163.5 L 39.5 163.5 M 35.5 149.5 L 39.5 149.5 M 35.5 135.5 L 39.5 135.5 M 35.5 121.5 L 39.5 121.5 M 35.5 107.5 L 39.5 107.5 M 35.5 93.5 L 39.5 93.5 M 35.5 80.5 L 39.5 80.5 M 35.5 66.5 L 39.5 66.5 M 35.5 52.5 L 39.5 52.5 M 35.5 38.5 L 39.5 38.5" stroke-opacity="1" stroke-linejoin="bevel" stroke-miterlimit="10" stroke-dasharray=""/><text fill="rgb(68,68,68)" stroke="none" font-family="helvetica" font-size="11px" font-style="normal" font-weight="normal" text-decoration="normal" x="3.2333335876464844" y="541.6378784179688" text-anchor="start" dominant-baseline="alphabetic" transform="matrix(1, 0, 0, 1, 0.5, 0.5)" fill-opacity="1">−300</text><text fill="rgb(68,68,68)" stroke="none" font-family="helvetica" font-size="11px" font-style="normal" font-weight="normal" text-decoration="normal" x="3.2333335876464844" y="472.23724365234375" text-anchor="start" dominant-baseline="alphabetic" transform="matrix(1, 0, 0, 1, 0.5, 0.5)" fill-opacity="1">−200</text><text fill="rgb(68,68,68)" stroke="none" font-family="helvetica" font-size="11px" font-style="normal" font-weight="normal" text-decoration="normal" x="3.2333335876464844" y="402.8366394042969" text-anchor="start" dominant-baseline="alphabetic" transform="matrix(1, 0, 0, 1, 0.5, 0.5)" fill-opacity="1">−100</text><text fill="rgb(68,68,68)" stroke="none" font-family="helvetica" font-size="11px" font-style="normal" font-weight="normal" text-decoration="normal" x="21.883333206176758" y="333.43603515625" text-anchor="start" dominant-baseline="alphabetic" transform="matrix(1, 0, 0, 1, 0.5, 0.5)" fill-opacity="1">0</text><text fill="rgb(68,68,68)" stroke="none" font-family="helvetica" font-size="11px" font-style="normal" font-weight="normal" text-decoration="normal" x="9.649999618530273" y="264.035400390625" text-anchor="start" dominant-baseline="alphabetic" transform="matrix(1, 0, 0, 1, 0.5, 0.5)" fill-opacity="1">100</text><text fill="rgb(68,68,68)" stroke="none" font-family="helvetica" font-size="11px" font-style="normal" font-weight="normal" text-decoration="normal" x="9.649999618530273" y="194.6348114013672" text-anchor="start" dominant-baseline="alphabetic" transform="matrix(1, 0, 0, 1, 0.5, 0.5)" fill-opacity="1">200</text><text fill="rgb(68,68,68)" stroke="none" font-family="helvetica" font-size="11px" font-style="normal" font-weight="normal" text-decoration="normal" x="9.649999618530273" y="125.23419952392578" text-anchor="start" dominant-baseline="alphabetic" transform="matrix(1, 0, 0, 1, 0.5, 0.5)" fill-opacity="1">300</text><text fill="rgb(68,68,68)" stroke="none" font-family="helvetica" font-size="11px" font-style="normal" font-weight="normal" text-decoration="normal" x="9.649999618530273" y="55.833587646484375" text-anchor="start" dominant-baseline="alphabetic" transform="matrix(1, 0, 0, 1, 0.5, 0.5)" fill-opacity="1">400</text><path fill="none" stroke="none"/><text fill="rgb(68,68,68)" stroke="none" font-family="helvetica" font-size="13px" font-style="normal" font-weight="bold" text-decoration="normal" x="0" y="0" text-anchor="start" dominant-baseline="text-after-edge" transform="matrix(1, 0, 0, 1, 39.5, 23.5)" fill-opacity="1">scatter plot of distance of TF in cobinding space</text></svg>