<svg version="1.1" xmlns="http://www.w3.org/2000/svg" xmlns:xlink="http://www.w3.org/1999/xlink" width="600" height="600"><defs><clipPath id="wNlFpkkKpgor"><path fill="none" stroke="none" d="M 45.5 28.5 L 570.5 28.5 L 570.5 578.5 L 45.5 578.5 L 45.5 28.5"/></clipPath><clipPath id="VefqAWOPhOUE"><path fill="none" stroke="none" d="M 45.5 28.5 L 570.5 28.5 L 570.5 578.5 L 45.5 578.5 L 45.5 28.5"/></clipPath><clipPath id="FhnrcNCBpbPE"><path fill="none" stroke="none" d="M 45.5 28.5 L 570.5 28.5 L 570.5 578.5 L 45.5 578.5 L 45.5 28.5"/></clipPath><clipPath id="BOoOTirZNzfI"><path fill="none" stroke="none" d="M 45.5 28.5 L 570.5 28.5 L 570.5 578.5 L 45.5 578.5 L 45.5 28.5"/></clipPath><clipPath id="tpkgphxAvXrX"><path fill="none" stroke="none" d="M 45.5 28.5 L 570.5 28.5 L 570.5 578.5 L 45.5 578.5 L 45.5 28.5"/></clipPath><clipPath id="QDRkdztFyVVH"><path fill="none" stroke="none" d="M 45.5 28.5 L 570.5 28.5 L 570.5 578.5 L 45.5 578.5 L 45.5 28.5"/></clipPath><clipPath id="FeEZqiwpbFBN"><path fill="none" stroke="none" d="M 45.5 28.5 L 570.5 28.5 L 570.5 578.5 L 45.5 578.5 L 45.5 28.5"/></clipPath><clipPath id="PTycbDmJArzb"><path fill="none" stroke="none" d="M 45.5 28.5 L 570.5 28.5 L 570.5 578.5 L 45.5 578.5 L 45.5 28.5"/></clipPath><clipPath id="eVJWclULnrUI"><path fill="none" stroke="none" d="M 45.5 28.5 L 570.5 28.5 L 570.5 578.5 L 45.5 578.5 L 45.5 28.5"/></clipPath></defs><path fill="rgb(255,255,255)" stroke="none" paint-order="stroke" d="M 0.5 0.5 L 600.5 0.5 L 600.5 600.5 L 0.5 600.5 L 0.5 0.5" fill-opacity="1"/><rect fill="#FFFFFF" stroke="none" x="45" y="28" width="525" height="550" transform="matrix(1, 0, 0, 1, 0.5, 0.5)"/><path fill="rgb(255,255,255)" stroke="none" paint-order="stroke" d="M 45.5 28.5 L 570.5 28.5 L 570.5 578.5 L 45.5 578.5 L 45.5 28.5" fill-opacity="1"/><path fill="none" stroke="rgb(229,229,229)" paint-order="fill" d="M 45.5 28.5 L 570.5 28.5 L 570.5 578.5 L 45.5 578.5 L 45.5 28.5" stroke-opacity="1" stroke-linejoin="bevel" stroke-miterlimit="10" stroke-dasharray=""/><path fill="none" stroke="rgb(229,229,229)" paint-order="fill" d="M 100.5 578.5 L 100.5 28.5 M 217.5 578.5 L 217.5 28.5 M 333.5 578.5 L 333.5 28.5 M 450.5 578.5 L 450.5 28.5 M 567.5 578.5 L 567.5 28.5" stroke-opacity="1" stroke-linejoin="bevel" stroke-miterlimit="10" stroke-dasharray="" clip-path="url(#wNlFpkkKpgor)"/><path fill="none" stroke="rgb(229,229,229)" paint-order="fill" d="M 45.5 550.5 L 570.5 550.5 M 45.5 467.5 L 570.5 467.5 M 45.5 384.5 L 570.5 384.5 M 45.5 301.5 L 570.5 301.5 M 45.5 218.5 L 570.5 218.5 M 45.5 135.5 L 570.5 135.5 M 45.5 52.5 L 570.5 52.5" stroke-opacity="1" stroke-linejoin="bevel" stroke-miterlimit="10" stroke-dasharray="" clip-path="url(#VefqAWOPhOUE)"/><path fill="none" stroke="none"/><path fill="rgb(68,1,84)" stroke="none" paint-order="stroke" d="M 180.73109436035156 395.57403564453125 A 2 2 0 1 1 180.73109336035165 395.57203564486457" fill-opacity="0.8" clip-path="url(#FhnrcNCBpbPE)"/><path fill="rgb(68,1,84)" stroke="none" paint-order="stroke" d="M 255.97164916992188 388.56817626953125 A 2 2 0 1 1 255.97164816992196 388.56617626986457" fill-opacity="0.8" clip-path="url(#FhnrcNCBpbPE)"/><path fill="rgb(253,231,36)" stroke="none" paint-order="stroke" d="M 221.1297607421875 369.8719787597656 A 2 2 0 1 1 221.1297597421876 369.86997876009895" fill-opacity="0.8" clip-path="url(#FhnrcNCBpbPE)"/><path fill="rgb(68,1,84)" stroke="none" paint-order="stroke" d="M 202.07742309570312 443.79742431640625 A 2 2 0 1 1 202.0774220957032 443.79542431673957" fill-opacity="0.8" clip-path="url(#FhnrcNCBpbPE)"/><path fill="rgb(253,231,36)" stroke="none" paint-order="stroke" d="M 216.44937133789062 412.2922668457031 A 2 2 0 1 1 216.4493703378907 412.29026684603645" fill-opacity="0.8" clip-path="url(#FhnrcNCBpbPE)"/><path fill="rgb(253,231,36)" stroke="none" paint-order="stroke" d="M 168.3473358154297 375.518798828125 A 2 2 0 1 1 168.34733481542978 375.5167988284583" fill-opacity="0.8" clip-path="url(#FhnrcNCBpbPE)"/><path fill="rgb(68,1,84)" stroke="none" paint-order="stroke" d="M 227.40052795410156 382.9401550292969 A 2 2 0 1 1 227.40052695410165 382.9381550296302" fill-opacity="0.8" clip-path="url(#FhnrcNCBpbPE)"/><path fill="rgb(253,231,36)" stroke="none" paint-order="stroke" d="M 238.55984497070312 370.9464416503906 A 2 2 0 1 1 238.5598439707032 370.94444165072395" fill-opacity="0.8" clip-path="url(#FhnrcNCBpbPE)"/><path fill="rgb(68,1,84)" stroke="none" paint-order="stroke" d="M 208.35218811035156 402.1560363769531 A 2 2 0 1 1 208.35218711035165 402.15403637728645" fill-opacity="0.8" clip-path="url(#FhnrcNCBpbPE)"/><path fill="rgb(68,1,84)" stroke="none" paint-order="stroke" d="M 177.6083221435547 432.95184326171875 A 2 2 0 1 1 177.60832114355478 432.94984326205207" fill-opacity="0.8" clip-path="url(#FhnrcNCBpbPE)"/><path fill="rgb(68,1,84)" stroke="none" paint-order="stroke" d="M 269.3341369628906 359.3214111328125 A 2 2 0 1 1 269.3341359628907 359.3194111331458" fill-opacity="0.8" clip-path="url(#FhnrcNCBpbPE)"/><path fill="rgb(68,1,84)" stroke="none" paint-order="stroke" d="M 195.50228881835938 442.8121643066406 A 2 2 0 1 1 195.50228781835946 442.81016430697395" fill-opacity="0.8" clip-path="url(#FhnrcNCBpbPE)"/><path fill="rgb(68,1,84)" stroke="none" paint-order="stroke" d="M 157.015869140625 373.8029479980469 A 2 2 0 1 1 157.0158681406251 373.8009479983802" fill-opacity="0.8" clip-path="url(#FhnrcNCBpbPE)"/><path fill="rgb(253,231,36)" stroke="none" paint-order="stroke" d="M 131.8289031982422 372.6810302734375 A 2 2 0 1 1 131.82890219824228 372.6790302737708" fill-opacity="0.8" clip-path="url(#FhnrcNCBpbPE)"/><path fill="rgb(68,1,84)" stroke="none" paint-order="stroke" d="M 157.6080780029297 394.0697937011719 A 2 2 0 1 1 157.60807700292978 394.0677937015052" fill-opacity="0.8" clip-path="url(#FhnrcNCBpbPE)"/><path fill="rgb(68,1,84)" stroke="none" paint-order="stroke" d="M 199.75540161132812 358.50714111328125 A 2 2 0 1 1 199.7554006113282 358.50514111361457" fill-opacity="0.8" clip-path="url(#FhnrcNCBpbPE)"/><path fill="rgb(253,231,36)" stroke="none" paint-order="stroke" d="M 165.3851776123047 388.97650146484375 A 2 2 0 1 1 165.38517661230478 388.97450146517707" fill-opacity="0.8" clip-path="url(#FhnrcNCBpbPE)"/><path fill="rgb(68,1,84)" stroke="none" paint-order="stroke" d="M 215.56231689453125 418.0591125488281 A 2 2 0 1 1 215.56231589453134 418.05711254916145" fill-opacity="0.8" clip-path="url(#FhnrcNCBpbPE)"/><path fill="rgb(68,1,84)" stroke="none" paint-order="stroke" d="M 276.4194641113281 390.7528991699219 A 2 2 0 1 1 276.4194631113282 390.7508991702552" fill-opacity="0.8" clip-path="url(#FhnrcNCBpbPE)"/><path fill="rgb(253,231,36)" stroke="none" paint-order="stroke" d="M 228.7545928955078 378.16912841796875 A 2 2 0 1 1 228.7545918955079 378.16712841830207" fill-opacity="0.8" clip-path="url(#FhnrcNCBpbPE)"/><path fill="rgb(253,231,36)" stroke="none" paint-order="stroke" d="M 171.90628051757812 379.92413330078125 A 2 2 0 1 1 171.9062795175782 379.92213330111457" fill-opacity="0.8" clip-path="url(#FhnrcNCBpbPE)"/><path fill="rgb(253,231,36)" stroke="none" paint-order="stroke" d="M 173.8626708984375 413.8858642578125 A 2 2 0 1 1 173.8626698984376 413.8838642581458" fill-opacity="0.8" clip-path="url(#FhnrcNCBpbPE)"/><path fill="rgb(68,1,84)" stroke="none" paint-order="stroke" d="M 214.85528564453125 380.70849609375 A 2 2 0 1 1 214.85528464453134 380.7064960940833" fill-opacity="0.8" clip-path="url(#FhnrcNCBpbPE)"/><path fill="rgb(253,231,36)" stroke="none" paint-order="stroke" d="M 180.3401641845703 414.5398864746094 A 2 2 0 1 1 180.3401631845704 414.5378864749427" fill-opacity="0.8" clip-path="url(#FhnrcNCBpbPE)"/><path fill="rgb(68,1,84)" stroke="none" paint-order="stroke" d="M 214.9611358642578 387.4024353027344 A 2 2 0 1 1 214.9611348642579 387.4004353030677" fill-opacity="0.8" clip-path="url(#FhnrcNCBpbPE)"/><path fill="rgb(68,1,84)" stroke="none" paint-order="stroke" d="M 150.4095916748047 378.6592712402344 A 2 2 0 1 1 150.40959067480478 378.6572712405677" fill-opacity="0.8" clip-path="url(#FhnrcNCBpbPE)"/><path fill="rgb(68,1,84)" stroke="none" paint-order="stroke" d="M 254.0857391357422 418.8470764160156 A 2 2 0 1 1 254.08573813574228 418.84507641634895" fill-opacity="0.8" clip-path="url(#FhnrcNCBpbPE)"/><path fill="rgb(253,231,36)" stroke="none" paint-order="stroke" d="M 183.7229461669922 371.19134521484375 A 2 2 0 1 1 183.72294516699228 371.18934521517707" fill-opacity="0.8" clip-path="url(#FhnrcNCBpbPE)"/><path fill="rgb(68,1,84)" stroke="none" paint-order="stroke" d="M 252.44313049316406 424.3376770019531 A 2 2 0 1 1 252.44312949316415 424.33567700228645" fill-opacity="0.8" clip-path="url(#FhnrcNCBpbPE)"/><path fill="rgb(253,231,36)" stroke="none" paint-order="stroke" d="M 71.36363983154297 411.6972351074219 A 2 2 0 1 1 71.36363883154306 411.6952351077552" fill-opacity="0.8" clip-path="url(#FhnrcNCBpbPE)"/><path fill="rgb(253,231,36)" stroke="none" paint-order="stroke" d="M 216.51644897460938 362.75445556640625 A 2 2 0 1 1 216.51644797460946 362.75245556673957" fill-opacity="0.8" clip-path="url(#FhnrcNCBpbPE)"/><path fill="rgb(68,1,84)" stroke="none" paint-order="stroke" d="M 161.4736328125 53.5 A 2 2 0 1 1 161.4736318125001 53.498000000333334" fill-opacity="0.8" clip-path="url(#FhnrcNCBpbPE)"/><path fill="rgb(68,1,84)" stroke="none" paint-order="stroke" d="M 135.82620239257812 396.6462097167969 A 2 2 0 1 1 135.8262013925782 396.6442097171302" fill-opacity="0.8" clip-path="url(#FhnrcNCBpbPE)"/><path fill="rgb(68,1,84)" stroke="none" paint-order="stroke" d="M 235.268310546875 358.70220947265625 A 2 2 0 1 1 235.2683095468751 358.70020947298957" fill-opacity="0.8" clip-path="url(#FhnrcNCBpbPE)"/><path fill="rgb(68,1,84)" stroke="none" paint-order="stroke" d="M 320.9386291503906 360.90087890625 A 2 2 0 1 1 320.9386281503907 360.8988789065833" fill-opacity="0.8" clip-path="url(#FhnrcNCBpbPE)"/><path fill="rgb(68,1,84)" stroke="none" paint-order="stroke" d="M 186.31350708007812 440.208251953125 A 2 2 0 1 1 186.3135060800782 440.2062519534583" fill-opacity="0.8" clip-path="url(#FhnrcNCBpbPE)"/><path fill="rgb(68,1,84)" stroke="none" paint-order="stroke" d="M 253.03070068359375 358.14447021484375 A 2 2 0 1 1 253.03069968359384 358.14247021517707" fill-opacity="0.8" clip-path="url(#FhnrcNCBpbPE)"/><path fill="rgb(68,1,84)" stroke="none" paint-order="stroke" d="M 251.1592254638672 375.2567443847656 A 2 2 0 1 1 251.15922446386728 375.25474438509895" fill-opacity="0.8" clip-path="url(#FhnrcNCBpbPE)"/><path fill="rgb(68,1,84)" stroke="none" paint-order="stroke" d="M 190.3864288330078 386.52166748046875 A 2 2 0 1 1 190.3864278330079 386.51966748080207" fill-opacity="0.8" clip-path="url(#FhnrcNCBpbPE)"/><path fill="rgb(68,1,84)" stroke="none" paint-order="stroke" d="M 124.29806518554688 386.3699645996094 A 2 2 0 1 1 124.29806418554696 386.3679645999427" fill-opacity="0.8" clip-path="url(#FhnrcNCBpbPE)"/><path fill="rgb(68,1,84)" stroke="none" paint-order="stroke" d="M 237.74241638183594 381.02978515625 A 2 2 0 1 1 237.74241538183603 381.0277851565833" fill-opacity="0.8" clip-path="url(#FhnrcNCBpbPE)"/><path fill="rgb(68,1,84)" stroke="none" paint-order="stroke" d="M 226.3618927001953 391.3780517578125 A 2 2 0 1 1 226.3618917001954 391.3760517581458" fill-opacity="0.8" clip-path="url(#FhnrcNCBpbPE)"/><path fill="rgb(68,1,84)" stroke="none" paint-order="stroke" d="M 181.99887084960938 378.9440002441406 A 2 2 0 1 1 181.99886984960946 378.94200024447395" fill-opacity="0.8" clip-path="url(#FhnrcNCBpbPE)"/><path fill="rgb(68,1,84)" stroke="none" paint-order="stroke" d="M 127.6627197265625 382.0948181152344 A 2 2 0 1 1 127.66271872656259 382.0928181155677" fill-opacity="0.8" clip-path="url(#FhnrcNCBpbPE)"/><path fill="rgb(68,1,84)" stroke="none" paint-order="stroke" d="M 250.7196807861328 402.9169616699219 A 2 2 0 1 1 250.7196797861329 402.9149616702552" fill-opacity="0.8" clip-path="url(#FhnrcNCBpbPE)"/><path fill="rgb(68,1,84)" stroke="none" paint-order="stroke" d="M 244.1839141845703 389.7123718261719 A 2 2 0 1 1 244.1839131845704 389.7103718265052" fill-opacity="0.8" clip-path="url(#FhnrcNCBpbPE)"/><path fill="rgb(68,1,84)" stroke="none" paint-order="stroke" d="M 117.70137023925781 391.1983642578125 A 2 2 0 1 1 117.7013692392579 391.1963642581458" fill-opacity="0.8" clip-path="url(#FhnrcNCBpbPE)"/><path fill="rgb(253,231,36)" stroke="none" paint-order="stroke" d="M 201.60911560058594 380.8003234863281 A 2 2 0 1 1 201.60911460058603 380.79832348666145" fill-opacity="0.8" clip-path="url(#FhnrcNCBpbPE)"/><path fill="rgb(68,1,84)" stroke="none" paint-order="stroke" d="M 244.13853454589844 396.8629150390625 A 2 2 0 1 1 244.13853354589853 396.8609150393958" fill-opacity="0.8" clip-path="url(#FhnrcNCBpbPE)"/><path fill="rgb(68,1,84)" stroke="none" paint-order="stroke" d="M 346.2623291015625 370.2879638671875 A 2 2 0 1 1 346.26232810156256 370.2859638675208" fill-opacity="0.8" clip-path="url(#FhnrcNCBpbPE)"/><path fill="rgb(68,1,84)" stroke="none" paint-order="stroke" d="M 254.40673828125 362.7076416015625 A 2 2 0 1 1 254.4067372812501 362.7056416018958" fill-opacity="0.8" clip-path="url(#FhnrcNCBpbPE)"/><path fill="rgb(68,1,84)" stroke="none" paint-order="stroke" d="M 218.02662658691406 402.1854553222656 A 2 2 0 1 1 218.02662558691415 402.18345532259895" fill-opacity="0.8" clip-path="url(#FhnrcNCBpbPE)"/><path fill="rgb(68,1,84)" stroke="none" paint-order="stroke" d="M 284.7781982421875 365.52783203125 A 2 2 0 1 1 284.77819724218756 365.5258320315833" fill-opacity="0.8" clip-path="url(#FhnrcNCBpbPE)"/><path fill="rgb(68,1,84)" stroke="none" paint-order="stroke" d="M 293.526123046875 365.3728332519531 A 2 2 0 1 1 293.52612204687506 365.37083325228645" fill-opacity="0.8" clip-path="url(#FhnrcNCBpbPE)"/><path fill="rgb(68,1,84)" stroke="none" paint-order="stroke" d="M 270.72088623046875 341.44268798828125 A 2 2 0 1 1 270.7208852304688 341.44068798861457" fill-opacity="0.8" clip-path="url(#FhnrcNCBpbPE)"/><path fill="rgb(68,1,84)" stroke="none" paint-order="stroke" d="M 286.3912658691406 373.53753662109375 A 2 2 0 1 1 286.3912648691407 373.53553662142707" fill-opacity="0.8" clip-path="url(#FhnrcNCBpbPE)"/><path fill="rgb(68,1,84)" stroke="none" paint-order="stroke" d="M 319.2664794921875 365.5494079589844 A 2 2 0 1 1 319.26647849218756 365.5474079593177" fill-opacity="0.8" clip-path="url(#FhnrcNCBpbPE)"/><path fill="rgb(68,1,84)" stroke="none" paint-order="stroke" d="M 548.6363525390625 553.5 A 2 2 0 1 1 548.6363515390626 553.4980000003334" fill-opacity="0.8" clip-path="url(#FhnrcNCBpbPE)"/><path fill="rgb(68,1,84)" stroke="none" paint-order="stroke" d="M 279.677734375 355.8560485839844 A 2 2 0 1 1 279.67773337500006 355.8540485843177" fill-opacity="0.8" clip-path="url(#FhnrcNCBpbPE)"/><path fill="rgb(68,1,84)" stroke="none" paint-order="stroke" d="M 296.6833801269531 353.09619140625 A 2 2 0 1 1 296.6833791269532 353.0941914065833" fill-opacity="0.8" clip-path="url(#FhnrcNCBpbPE)"/><path fill="rgb(68,1,84)" stroke="none" paint-order="stroke" d="M 286.6897888183594 357.6721496582031 A 2 2 0 1 1 286.68978781835943 357.67014965853645" fill-opacity="0.8" clip-path="url(#FhnrcNCBpbPE)"/><path fill="rgb(68,1,84)" stroke="none" paint-order="stroke" d="M 275.9856872558594 348.3089294433594 A 2 2 0 1 1 275.98568625585943 348.3069294436927" fill-opacity="0.8" clip-path="url(#FhnrcNCBpbPE)"/><path fill="none" stroke="none"/><text fill="rgb(68,68,68)" stroke="none" font-family="helvetica" font-size="9pt" font-style="normal" font-weight="normal" text-decoration="normal" x="0" y="0" text-anchor="start" dominant-baseline="text-after-edge" transform="matrix(1, 0, 0, 1, 183.73109436035156, 390.57403564453125)" fill-opacity="1">open regions</text><path fill="none" stroke="none"/><text fill="rgb(68,68,68)" stroke="none" font-family="helvetica" font-size="9pt" font-style="normal" font-weight="normal" text-decoration="normal" x="0" y="0" text-anchor="start" dominant-baseline="text-after-edge" transform="matrix(1, 0, 0, 1, 258.9716491699219, 383.56817626953125)" fill-opacity="1">super_enhancer</text><path fill="none" stroke="none"/><text fill="rgb(68,68,68)" stroke="none" font-family="helvetica" font-size="9pt" font-style="normal" font-weight="normal" text-decoration="normal" x="0" y="0" text-anchor="start" dominant-baseline="text-after-edge" transform="matrix(1, 0, 0, 1, 224.1297607421875, 364.8719787597656)" fill-opacity="1">FLAG_MEF2D</text><path fill="none" stroke="none"/><text fill="rgb(68,68,68)" stroke="none" font-family="helvetica" font-size="9pt" font-style="normal" font-weight="normal" text-decoration="normal" x="0" y="0" text-anchor="start" dominant-baseline="text-after-edge" transform="matrix(1, 0, 0, 1, 205.07742309570312, 438.79742431640625)" fill-opacity="1">TFAP4</text><path fill="none" stroke="none"/><text fill="rgb(68,68,68)" stroke="none" font-family="helvetica" font-size="9pt" font-style="normal" font-weight="normal" text-decoration="normal" x="0" y="0" text-anchor="start" dominant-baseline="text-after-edge" transform="matrix(1, 0, 0, 1, 219.44937133789062, 407.2922668457031)" fill-opacity="1">FLI1</text><path fill="none" stroke="none"/><text fill="rgb(68,68,68)" stroke="none" font-family="helvetica" font-size="9pt" font-style="normal" font-weight="normal" text-decoration="normal" x="0" y="0" text-anchor="start" dominant-baseline="text-after-edge" transform="matrix(1, 0, 0, 1, 171.3473358154297, 370.518798828125)" fill-opacity="1">RUNX1</text><path fill="none" stroke="none"/><text fill="rgb(68,68,68)" stroke="none" font-family="helvetica" font-size="9pt" font-style="normal" font-weight="normal" text-decoration="normal" x="0" y="0" text-anchor="start" dominant-baseline="text-after-edge" transform="matrix(1, 0, 0, 1, 230.40052795410156, 377.9401550292969)" fill-opacity="1">MAX</text><path fill="none" stroke="none"/><text fill="rgb(68,68,68)" stroke="none" font-family="helvetica" font-size="9pt" font-style="normal" font-weight="normal" text-decoration="normal" x="0" y="0" text-anchor="start" dominant-baseline="text-after-edge" transform="matrix(1, 0, 0, 1, 241.55984497070312, 365.9464416503906)" fill-opacity="1">LMO2</text><path fill="none" stroke="none"/><text fill="rgb(68,68,68)" stroke="none" font-family="helvetica" font-size="9pt" font-style="normal" font-weight="normal" text-decoration="normal" x="0" y="0" text-anchor="start" dominant-baseline="text-after-edge" transform="matrix(1, 0, 0, 1, 211.35218811035156, 397.1560363769531)" fill-opacity="1">PLAGL2</text><path fill="none" stroke="none"/><text fill="rgb(68,68,68)" stroke="none" font-family="helvetica" font-size="9pt" font-style="normal" font-weight="normal" text-decoration="normal" x="0" y="0" text-anchor="start" dominant-baseline="text-after-edge" transform="matrix(1, 0, 0, 1, 180.6083221435547, 427.95184326171875)" fill-opacity="1">FOSL2</text><path fill="none" stroke="none"/><text fill="rgb(68,68,68)" stroke="none" font-family="helvetica" font-size="9pt" font-style="normal" font-weight="normal" text-decoration="normal" x="0" y="0" text-anchor="start" dominant-baseline="text-after-edge" transform="matrix(1, 0, 0, 1, 272.3341369628906, 354.3214111328125)" fill-opacity="1">SP1</text><path fill="none" stroke="none"/><text fill="rgb(68,68,68)" stroke="none" font-family="helvetica" font-size="9pt" font-style="normal" font-weight="normal" text-decoration="normal" x="0" y="0" text-anchor="start" dominant-baseline="text-after-edge" transform="matrix(1, 0, 0, 1, 198.50228881835938, 437.8121643066406)" fill-opacity="1">RXRA</text><path fill="none" stroke="none"/><text fill="rgb(68,68,68)" stroke="none" font-family="helvetica" font-size="9pt" font-style="normal" font-weight="normal" text-decoration="normal" x="0" y="0" text-anchor="start" dominant-baseline="text-after-edge" transform="matrix(1, 0, 0, 1, 160.015869140625, 368.8029479980469)" fill-opacity="1">LYL1</text><path fill="none" stroke="none"/><text fill="rgb(68,68,68)" stroke="none" font-family="helvetica" font-size="9pt" font-style="normal" font-weight="normal" text-decoration="normal" x="0" y="0" text-anchor="start" dominant-baseline="text-after-edge" transform="matrix(1, 0, 0, 1, 134.8289031982422, 367.6810302734375)" fill-opacity="1">FLAG_GFI1</text><path fill="none" stroke="none"/><text fill="rgb(68,68,68)" stroke="none" font-family="helvetica" font-size="9pt" font-style="normal" font-weight="normal" text-decoration="normal" x="0" y="0" text-anchor="start" dominant-baseline="text-after-edge" transform="matrix(1, 0, 0, 1, 160.6080780029297, 389.0697937011719)" fill-opacity="1">HOXA9</text><path fill="none" stroke="none"/><text fill="rgb(68,68,68)" stroke="none" font-family="helvetica" font-size="9pt" font-style="normal" font-weight="normal" text-decoration="normal" x="0" y="0" text-anchor="start" dominant-baseline="text-after-edge" transform="matrix(1, 0, 0, 1, 202.75540161132812, 353.50714111328125)" fill-opacity="1">STAT5B</text><path fill="none" stroke="none"/><text fill="rgb(68,68,68)" stroke="none" font-family="helvetica" font-size="9pt" font-style="normal" font-weight="normal" text-decoration="normal" x="0" y="0" text-anchor="start" dominant-baseline="text-after-edge" transform="matrix(1, 0, 0, 1, 168.3851776123047, 383.97650146484375)" fill-opacity="1">MEIS1</text><path fill="none" stroke="none"/><text fill="rgb(68,68,68)" stroke="none" font-family="helvetica" font-size="9pt" font-style="normal" font-weight="normal" text-decoration="normal" x="0" y="0" text-anchor="start" dominant-baseline="text-after-edge" transform="matrix(1, 0, 0, 1, 218.56231689453125, 413.0591125488281)" fill-opacity="1">ETV6</text><path fill="none" stroke="none"/><text fill="rgb(68,68,68)" stroke="none" font-family="helvetica" font-size="9pt" font-style="normal" font-weight="normal" text-decoration="normal" x="0" y="0" text-anchor="start" dominant-baseline="text-after-edge" transform="matrix(1, 0, 0, 1, 279.4194641113281, 385.7528991699219)" fill-opacity="1">ZNF281</text><path fill="none" stroke="none"/><text fill="rgb(68,68,68)" stroke="none" font-family="helvetica" font-size="9pt" font-style="normal" font-weight="normal" text-decoration="normal" x="0" y="0" text-anchor="start" dominant-baseline="text-after-edge" transform="matrix(1, 0, 0, 1, 231.7545928955078, 373.16912841796875)" fill-opacity="1">MYC</text><path fill="none" stroke="none"/><text fill="rgb(68,68,68)" stroke="none" font-family="helvetica" font-size="9pt" font-style="normal" font-weight="normal" text-decoration="normal" x="0" y="0" text-anchor="start" dominant-baseline="text-after-edge" transform="matrix(1, 0, 0, 1, 174.90628051757812, 374.92413330078125)" fill-opacity="1">RUNX2</text><path fill="none" stroke="none"/><text fill="rgb(68,68,68)" stroke="none" font-family="helvetica" font-size="9pt" font-style="normal" font-weight="normal" text-decoration="normal" x="0" y="0" text-anchor="start" dominant-baseline="text-after-edge" transform="matrix(1, 0, 0, 1, 176.8626708984375, 408.8858642578125)" fill-opacity="1">SPI1</text><path fill="none" stroke="none"/><text fill="rgb(68,68,68)" stroke="none" font-family="helvetica" font-size="9pt" font-style="normal" font-weight="normal" text-decoration="normal" x="0" y="0" text-anchor="start" dominant-baseline="text-after-edge" transform="matrix(1, 0, 0, 1, 217.85528564453125, 375.70849609375)" fill-opacity="1">ZMYND8</text><path fill="none" stroke="none"/><text fill="rgb(68,68,68)" stroke="none" font-family="helvetica" font-size="9pt" font-style="normal" font-weight="normal" text-decoration="normal" x="0" y="0" text-anchor="start" dominant-baseline="text-after-edge" transform="matrix(1, 0, 0, 1, 183.3401641845703, 409.5398864746094)" fill-opacity="1">IRF8</text><path fill="none" stroke="none"/><text fill="rgb(68,68,68)" stroke="none" font-family="helvetica" font-size="9pt" font-style="normal" font-weight="normal" text-decoration="normal" x="0" y="0" text-anchor="start" dominant-baseline="text-after-edge" transform="matrix(1, 0, 0, 1, 217.9611358642578, 382.4024353027344)" fill-opacity="1">ZEB2</text><path fill="none" stroke="none"/><text fill="rgb(68,68,68)" stroke="none" font-family="helvetica" font-size="9pt" font-style="normal" font-weight="normal" text-decoration="normal" x="0" y="0" text-anchor="start" dominant-baseline="text-after-edge" transform="matrix(1, 0, 0, 1, 153.4095916748047, 373.6592712402344)" fill-opacity="1">GATA2</text><path fill="none" stroke="none"/><text fill="rgb(68,68,68)" stroke="none" font-family="helvetica" font-size="9pt" font-style="normal" font-weight="normal" text-decoration="normal" x="0" y="0" text-anchor="start" dominant-baseline="text-after-edge" transform="matrix(1, 0, 0, 1, 257.0857391357422, 413.8470764160156)" fill-opacity="1">E2F3</text><path fill="none" stroke="none"/><text fill="rgb(68,68,68)" stroke="none" font-family="helvetica" font-size="9pt" font-style="normal" font-weight="normal" text-decoration="normal" x="0" y="0" text-anchor="start" dominant-baseline="text-after-edge" transform="matrix(1, 0, 0, 1, 186.7229461669922, 366.19134521484375)" fill-opacity="1">MYB</text><path fill="none" stroke="none"/><text fill="rgb(68,68,68)" stroke="none" font-family="helvetica" font-size="9pt" font-style="normal" font-weight="normal" text-decoration="normal" x="0" y="0" text-anchor="start" dominant-baseline="text-after-edge" transform="matrix(1, 0, 0, 1, 255.44313049316406, 419.3376770019531)" fill-opacity="1">SREBF1</text><path fill="none" stroke="none"/><text fill="rgb(68,68,68)" stroke="none" font-family="helvetica" font-size="9pt" font-style="normal" font-weight="normal" text-decoration="normal" x="0" y="0" text-anchor="start" dominant-baseline="text-after-edge" transform="matrix(1, 0, 0, 1, 74.36363983154297, 406.6972351074219)" fill-opacity="1">CEBPA</text><path fill="none" stroke="none"/><text fill="rgb(68,68,68)" stroke="none" font-family="helvetica" font-size="9pt" font-style="normal" font-weight="normal" text-decoration="normal" x="0" y="0" text-anchor="start" dominant-baseline="text-after-edge" transform="matrix(1, 0, 0, 1, 219.51644897460938, 357.75445556640625)" fill-opacity="1">MEF2C</text><path fill="none" stroke="none"/><text fill="rgb(68,68,68)" stroke="none" font-family="helvetica" font-size="9pt" font-style="normal" font-weight="normal" text-decoration="normal" x="0" y="0" text-anchor="start" dominant-baseline="text-after-edge" transform="matrix(1, 0, 0, 1, 164.4736328125, 48.5)" fill-opacity="1">MLL_KTM2A</text><path fill="none" stroke="none"/><text fill="rgb(68,68,68)" stroke="none" font-family="helvetica" font-size="9pt" font-style="normal" font-weight="normal" text-decoration="normal" x="0" y="0" text-anchor="start" dominant-baseline="text-after-edge" transform="matrix(1, 0, 0, 1, 138.82620239257812, 391.6462097167969)" fill-opacity="1">MYBL2</text><path fill="none" stroke="none"/><text fill="rgb(68,68,68)" stroke="none" font-family="helvetica" font-size="9pt" font-style="normal" font-weight="normal" text-decoration="normal" x="0" y="0" text-anchor="start" dominant-baseline="text-after-edge" transform="matrix(1, 0, 0, 1, 238.268310546875, 353.70220947265625)" fill-opacity="1">POLII</text><path fill="none" stroke="none"/><text fill="rgb(68,68,68)" stroke="none" font-family="helvetica" font-size="9pt" font-style="normal" font-weight="normal" text-decoration="normal" x="0" y="0" text-anchor="start" dominant-baseline="text-after-edge" transform="matrix(1, 0, 0, 1, 323.9386291503906, 355.90087890625)" fill-opacity="1">PSER2</text><path fill="none" stroke="none"/><text fill="rgb(68,68,68)" stroke="none" font-family="helvetica" font-size="9pt" font-style="normal" font-weight="normal" text-decoration="normal" x="0" y="0" text-anchor="start" dominant-baseline="text-after-edge" transform="matrix(1, 0, 0, 1, 189.31350708007812, 435.208251953125)" fill-opacity="1">RARA</text><path fill="none" stroke="none"/><text fill="rgb(68,68,68)" stroke="none" font-family="helvetica" font-size="9pt" font-style="normal" font-weight="normal" text-decoration="normal" x="0" y="0" text-anchor="start" dominant-baseline="text-after-edge" transform="matrix(1, 0, 0, 1, 256.03070068359375, 353.14447021484375)" fill-opacity="1">cohesin</text><path fill="none" stroke="none"/><text fill="rgb(68,68,68)" stroke="none" font-family="helvetica" font-size="9pt" font-style="normal" font-weight="normal" text-decoration="normal" x="0" y="0" text-anchor="start" dominant-baseline="text-after-edge" transform="matrix(1, 0, 0, 1, 254.1592254638672, 370.2567443847656)" fill-opacity="1">WDR5</text><path fill="none" stroke="none"/><text fill="rgb(68,68,68)" stroke="none" font-family="helvetica" font-size="9pt" font-style="normal" font-weight="normal" text-decoration="normal" x="0" y="0" text-anchor="start" dominant-baseline="text-after-edge" transform="matrix(1, 0, 0, 1, 193.3864288330078, 381.52166748046875)" fill-opacity="1">JUND</text><path fill="none" stroke="none"/><text fill="rgb(68,68,68)" stroke="none" font-family="helvetica" font-size="9pt" font-style="normal" font-weight="normal" text-decoration="normal" x="0" y="0" text-anchor="start" dominant-baseline="text-after-edge" transform="matrix(1, 0, 0, 1, 127.29806518554688, 381.3699645996094)" fill-opacity="1">LDB1</text><path fill="none" stroke="none"/><text fill="rgb(68,68,68)" stroke="none" font-family="helvetica" font-size="9pt" font-style="normal" font-weight="normal" text-decoration="normal" x="0" y="0" text-anchor="start" dominant-baseline="text-after-edge" transform="matrix(1, 0, 0, 1, 240.74241638183594, 376.02978515625)" fill-opacity="1">mediator</text><path fill="none" stroke="none"/><text fill="rgb(68,68,68)" stroke="none" font-family="helvetica" font-size="9pt" font-style="normal" font-weight="normal" text-decoration="normal" x="0" y="0" text-anchor="start" dominant-baseline="text-after-edge" transform="matrix(1, 0, 0, 1, 229.3618927001953, 386.3780517578125)" fill-opacity="1">IKZF1</text><path fill="none" stroke="none"/><text fill="rgb(68,68,68)" stroke="none" font-family="helvetica" font-size="9pt" font-style="normal" font-weight="normal" text-decoration="normal" x="0" y="0" text-anchor="start" dominant-baseline="text-after-edge" transform="matrix(1, 0, 0, 1, 184.99887084960938, 373.9440002441406)" fill-opacity="1">FOXP1</text><path fill="none" stroke="none"/><text fill="rgb(68,68,68)" stroke="none" font-family="helvetica" font-size="9pt" font-style="normal" font-weight="normal" text-decoration="normal" x="0" y="0" text-anchor="start" dominant-baseline="text-after-edge" transform="matrix(1, 0, 0, 1, 130.6627197265625, 377.0948181152344)" fill-opacity="1">GSE1</text><path fill="none" stroke="none"/><text fill="rgb(68,68,68)" stroke="none" font-family="helvetica" font-size="9pt" font-style="normal" font-weight="normal" text-decoration="normal" x="0" y="0" text-anchor="start" dominant-baseline="text-after-edge" transform="matrix(1, 0, 0, 1, 253.7196807861328, 397.9169616699219)" fill-opacity="1">AFF4</text><path fill="none" stroke="none"/><text fill="rgb(68,68,68)" stroke="none" font-family="helvetica" font-size="9pt" font-style="normal" font-weight="normal" text-decoration="normal" x="0" y="0" text-anchor="start" dominant-baseline="text-after-edge" transform="matrix(1, 0, 0, 1, 247.1839141845703, 384.7123718261719)" fill-opacity="1">BRD4</text><path fill="none" stroke="none"/><text fill="rgb(68,68,68)" stroke="none" font-family="helvetica" font-size="9pt" font-style="normal" font-weight="normal" text-decoration="normal" x="0" y="0" text-anchor="start" dominant-baseline="text-after-edge" transform="matrix(1, 0, 0, 1, 120.70137023925781, 386.1983642578125)" fill-opacity="1">CDK13</text><path fill="none" stroke="none"/><text fill="rgb(68,68,68)" stroke="none" font-family="helvetica" font-size="9pt" font-style="normal" font-weight="normal" text-decoration="normal" x="0" y="0" text-anchor="start" dominant-baseline="text-after-edge" transform="matrix(1, 0, 0, 1, 204.60911560058594, 375.8003234863281)" fill-opacity="1">IRF2BP2</text><path fill="none" stroke="none"/><text fill="rgb(68,68,68)" stroke="none" font-family="helvetica" font-size="9pt" font-style="normal" font-weight="normal" text-decoration="normal" x="0" y="0" text-anchor="start" dominant-baseline="text-after-edge" transform="matrix(1, 0, 0, 1, 247.13853454589844, 391.8629150390625)" fill-opacity="1">CDK9</text><path fill="none" stroke="none"/><text fill="rgb(68,68,68)" stroke="none" font-family="helvetica" font-size="9pt" font-style="normal" font-weight="normal" text-decoration="normal" x="0" y="0" text-anchor="start" dominant-baseline="text-after-edge" transform="matrix(1, 0, 0, 1, 349.2623291015625, 365.2879638671875)" fill-opacity="1">CEBPB</text><path fill="none" stroke="none"/><text fill="rgb(68,68,68)" stroke="none" font-family="helvetica" font-size="9pt" font-style="normal" font-weight="normal" text-decoration="normal" x="0" y="0" text-anchor="start" dominant-baseline="text-after-edge" transform="matrix(1, 0, 0, 1, 257.40673828125, 357.7076416015625)" fill-opacity="1">CTCF</text><path fill="none" stroke="none"/><text fill="rgb(68,68,68)" stroke="none" font-family="helvetica" font-size="9pt" font-style="normal" font-weight="normal" text-decoration="normal" x="0" y="0" text-anchor="start" dominant-baseline="text-after-edge" transform="matrix(1, 0, 0, 1, 221.02662658691406, 397.1854553222656)" fill-opacity="1">ELF2</text><path fill="none" stroke="none"/><text fill="rgb(68,68,68)" stroke="none" font-family="helvetica" font-size="9pt" font-style="normal" font-weight="normal" text-decoration="normal" x="0" y="0" text-anchor="start" dominant-baseline="text-after-edge" transform="matrix(1, 0, 0, 1, 287.7781982421875, 360.52783203125)" fill-opacity="1">H3K18</text><path fill="none" stroke="none"/><text fill="rgb(68,68,68)" stroke="none" font-family="helvetica" font-size="9pt" font-style="normal" font-weight="normal" text-decoration="normal" x="0" y="0" text-anchor="start" dominant-baseline="text-after-edge" transform="matrix(1, 0, 0, 1, 296.526123046875, 360.3728332519531)" fill-opacity="1">H3K27ac</text><path fill="none" stroke="none"/><text fill="rgb(68,68,68)" stroke="none" font-family="helvetica" font-size="9pt" font-style="normal" font-weight="normal" text-decoration="normal" x="0" y="0" text-anchor="start" dominant-baseline="text-after-edge" transform="matrix(1, 0, 0, 1, 273.72088623046875, 336.44268798828125)" fill-opacity="1">H3K27me3</text><path fill="none" stroke="none"/><text fill="rgb(68,68,68)" stroke="none" font-family="helvetica" font-size="9pt" font-style="normal" font-weight="normal" text-decoration="normal" x="0" y="0" text-anchor="start" dominant-baseline="text-after-edge" transform="matrix(1, 0, 0, 1, 289.3912658691406, 368.53753662109375)" fill-opacity="1">H3K36me2</text><path fill="none" stroke="none"/><text fill="rgb(68,68,68)" stroke="none" font-family="helvetica" font-size="9pt" font-style="normal" font-weight="normal" text-decoration="normal" x="0" y="0" text-anchor="start" dominant-baseline="text-after-edge" transform="matrix(1, 0, 0, 1, 322.2664794921875, 360.5494079589844)" fill-opacity="1">H3K36me3</text><path fill="none" stroke="none"/><text fill="rgb(68,68,68)" stroke="none" font-family="helvetica" font-size="9pt" font-style="normal" font-weight="normal" text-decoration="normal" x="0" y="0" text-anchor="start" dominant-baseline="text-after-edge" transform="matrix(1, 0, 0, 1, 551.6363525390625, 548.5)" fill-opacity="1">H3K4me1</text><path fill="none" stroke="none"/><text fill="rgb(68,68,68)" stroke="none" font-family="helvetica" font-size="9pt" font-style="normal" font-weight="normal" text-decoration="normal" x="0" y="0" text-anchor="start" dominant-baseline="text-after-edge" transform="matrix(1, 0, 0, 1, 282.677734375, 350.8560485839844)" fill-opacity="1">H3K4me3</text><path fill="none" stroke="none"/><text fill="rgb(68,68,68)" stroke="none" font-family="helvetica" font-size="9pt" font-style="normal" font-weight="normal" text-decoration="normal" x="0" y="0" text-anchor="start" dominant-baseline="text-after-edge" transform="matrix(1, 0, 0, 1, 299.6833801269531, 348.09619140625)" fill-opacity="1">H3K79me2</text><path fill="none" stroke="none"/><text fill="rgb(68,68,68)" stroke="none" font-family="helvetica" font-size="9pt" font-style="normal" font-weight="normal" text-decoration="normal" x="0" y="0" text-anchor="start" dominant-baseline="text-after-edge" transform="matrix(1, 0, 0, 1, 289.6897888183594, 352.6721496582031)" fill-opacity="1">H3K9ac</text><path fill="none" stroke="none"/><text fill="rgb(68,68,68)" stroke="none" font-family="helvetica" font-size="9pt" font-style="normal" font-weight="normal" text-decoration="normal" x="0" y="0" text-anchor="start" dominant-baseline="text-after-edge" transform="matrix(1, 0, 0, 1, 278.9856872558594, 343.3089294433594)" fill-opacity="1">promoter</text><path fill="none" stroke="rgb(0,0,0)" paint-order="fill" d="M 45.5 578.5 L 570.5 578.5" stroke-opacity="1" stroke-linejoin="bevel" stroke-miterlimit="10" stroke-dasharray=""/><path fill="none" stroke="rgb(0,0,0)" paint-order="fill" d="M 100.5 584.5 L 100.5 576.5 M 217.5 584.5 L 217.5 576.5 M 333.5 584.5 L 333.5 576.5 M 450.5 584.5 L 450.5 576.5 M 567.5 584.5 L 567.5 576.5" stroke-opacity="1" stroke-linejoin="bevel" stroke-miterlimit="10" stroke-dasharray=""/><path fill="none" stroke="rgb(0,0,0)" paint-order="fill" d="M 77.5 582.5 L 77.5 578.5 M 53.5 582.5 L 53.5 578.5 M 100.5 582.5 L 100.5 578.5 M 123.5 582.5 L 123.5 578.5 M 147.5 582.5 L 147.5 578.5 M 170.5 582.5 L 170.5 578.5 M 193.5 582.5 L 193.5 578.5 M 217.5 582.5 L 217.5 578.5 M 240.5 582.5 L 240.5 578.5 M 263.5 582.5 L 263.5 578.5 M 287.5 582.5 L 287.5 578.5 M 310.5 582.5 L 310.5 578.5 M 333.5 582.5 L 333.5 578.5 M 357.5 582.5 L 357.5 578.5 M 380.5 582.5 L 380.5 578.5 M 403.5 582.5 L 403.5 578.5 M 427.5 582.5 L 427.5 578.5 M 450.5 582.5 L 450.5 578.5 M 473.5 582.5 L 473.5 578.5 M 497.5 582.5 L 497.5 578.5 M 520.5 582.5 L 520.5 578.5 M 543.5 582.5 L 543.5 578.5 M 567.5 582.5 L 567.5 578.5" stroke-opacity="1" stroke-linejoin="bevel" stroke-miterlimit="10" stroke-dasharray=""/><text fill="rgb(68,68,68)" stroke="none" font-family="helvetica" font-size="11px" font-style="normal" font-weight="normal" text-decoration="normal" x="87.5816478729248" y="597" text-anchor="start" dominant-baseline="alphabetic" transform="matrix(1, 0, 0, 1, 0.5, 0.5)" fill-opacity="1">−500</text><text fill="rgb(68,68,68)" stroke="none" font-family="helvetica" font-size="11px" font-style="normal" font-weight="normal" text-decoration="normal" x="213.54263401031494" y="597" text-anchor="start" dominant-baseline="alphabetic" transform="matrix(1, 0, 0, 1, 0.5, 0.5)" fill-opacity="1">0</text><text fill="rgb(68,68,68)" stroke="none" font-family="helvetica" font-size="11px" font-style="normal" font-weight="normal" text-decoration="normal" x="324.06196880340576" y="597" text-anchor="start" dominant-baseline="alphabetic" transform="matrix(1, 0, 0, 1, 0.5, 0.5)" fill-opacity="1">500</text><text fill="rgb(68,68,68)" stroke="none" font-family="helvetica" font-size="11px" font-style="normal" font-weight="normal" text-decoration="normal" x="437.63962173461914" y="597" text-anchor="start" dominant-baseline="alphabetic" transform="matrix(1, 0, 0, 1, 0.5, 0.5)" fill-opacity="1">1000</text><text fill="rgb(68,68,68)" stroke="none" font-family="helvetica" font-size="11px" font-style="normal" font-weight="normal" text-decoration="normal" x="554.275577545166" y="597" text-anchor="start" dominant-baseline="alphabetic" transform="matrix(1, 0, 0, 1, 0.5, 0.5)" fill-opacity="1">1500</text><path fill="none" stroke="rgb(0,0,0)" paint-order="fill" d="M 45.5 578.5 L 45.5 28.5" stroke-opacity="1" stroke-linejoin="bevel" stroke-miterlimit="10" stroke-dasharray=""/><path fill="none" stroke="rgb(0,0,0)" paint-order="fill" d="M 39.5 550.5 L 47.5 550.5 M 39.5 467.5 L 47.5 467.5 M 39.5 384.5 L 47.5 384.5 M 39.5 301.5 L 47.5 301.5 M 39.5 218.5 L 47.5 218.5 M 39.5 135.5 L 47.5 135.5 M 39.5 52.5 L 47.5 52.5" stroke-opacity="1" stroke-linejoin="bevel" stroke-miterlimit="10" stroke-dasharray=""/><path fill="none" stroke="rgb(0,0,0)" paint-order="fill" d="M 41.5 567.5 L 45.5 567.5 M 41.5 550.5 L 45.5 550.5 M 41.5 534.5 L 45.5 534.5 M 41.5 517.5 L 45.5 517.5 M 41.5 500.5 L 45.5 500.5 M 41.5 484.5 L 45.5 484.5 M 41.5 467.5 L 45.5 467.5 M 41.5 451.5 L 45.5 451.5 M 41.5 434.5 L 45.5 434.5 M 41.5 417.5 L 45.5 417.5 M 41.5 401.5 L 45.5 401.5 M 41.5 384.5 L 45.5 384.5 M 41.5 368.5 L 45.5 368.5 M 41.5 351.5 L 45.5 351.5 M 41.5 334.5 L 45.5 334.5 M 41.5 318.5 L 45.5 318.5 M 41.5 301.5 L 45.5 301.5 M 41.5 285.5 L 45.5 285.5 M 41.5 268.5 L 45.5 268.5 M 41.5 251.5 L 45.5 251.5 M 41.5 235.5 L 45.5 235.5 M 41.5 218.5 L 45.5 218.5 M 41.5 201.5 L 45.5 201.5 M 41.5 185.5 L 45.5 185.5 M 41.5 168.5 L 45.5 168.5 M 41.5 152.5 L 45.5 152.5 M 41.5 135.5 L 45.5 135.5 M 41.5 118.5 L 45.5 118.5 M 41.5 102.5 L 45.5 102.5 M 41.5 85.5 L 45.5 85.5 M 41.5 69.5 L 45.5 69.5 M 41.5 52.5 L 45.5 52.5 M 41.5 35.5 L 45.5 35.5" stroke-opacity="1" stroke-linejoin="bevel" stroke-miterlimit="10" stroke-dasharray=""/><text fill="rgb(68,68,68)" stroke="none" font-family="helvetica" font-size="11px" font-style="normal" font-weight="normal" text-decoration="normal" x="3.116666793823242" y="554.2227172851562" text-anchor="start" dominant-baseline="alphabetic" transform="matrix(1, 0, 0, 1, 0.5, 0.5)" fill-opacity="1">−1000</text><text fill="rgb(68,68,68)" stroke="none" font-family="helvetica" font-size="11px" font-style="normal" font-weight="normal" text-decoration="normal" x="9.233333587646484" y="471.18853759765625" text-anchor="start" dominant-baseline="alphabetic" transform="matrix(1, 0, 0, 1, 0.5, 0.5)" fill-opacity="1">−500</text><text fill="rgb(68,68,68)" stroke="none" font-family="helvetica" font-size="11px" font-style="normal" font-weight="normal" text-decoration="normal" x="27.883333206176758" y="388.15435791015625" text-anchor="start" dominant-baseline="alphabetic" transform="matrix(1, 0, 0, 1, 0.5, 0.5)" fill-opacity="1">0</text><text fill="rgb(68,68,68)" stroke="none" font-family="helvetica" font-size="11px" font-style="normal" font-weight="normal" text-decoration="normal" x="15.649999618530273" y="305.12017822265625" text-anchor="start" dominant-baseline="alphabetic" transform="matrix(1, 0, 0, 1, 0.5, 0.5)" fill-opacity="1">500</text><text fill="rgb(68,68,68)" stroke="none" font-family="helvetica" font-size="11px" font-style="normal" font-weight="normal" text-decoration="normal" x="9.533332824707031" y="222.08599853515625" text-anchor="start" dominant-baseline="alphabetic" transform="matrix(1, 0, 0, 1, 0.5, 0.5)" fill-opacity="1">1000</text><text fill="rgb(68,68,68)" stroke="none" font-family="helvetica" font-size="11px" font-style="normal" font-weight="normal" text-decoration="normal" x="9.533332824707031" y="139.05181884765625" text-anchor="start" dominant-baseline="alphabetic" transform="matrix(1, 0, 0, 1, 0.5, 0.5)" fill-opacity="1">1500</text><text fill="rgb(68,68,68)" stroke="none" font-family="helvetica" font-size="11px" font-style="normal" font-weight="normal" text-decoration="normal" x="9.533332824707031" y="56.01763916015625" text-anchor="start" dominant-baseline="alphabetic" transform="matrix(1, 0, 0, 1, 0.5, 0.5)" fill-opacity="1">2000</text><path fill="none" stroke="none"/><text fill="rgb(68,68,68)" stroke="none" font-family="helvetica" font-size="13px" font-style="normal" font-weight="bold" text-decoration="normal" x="0" y="0" text-anchor="start" dominant-baseline="text-after-edge" transform="matrix(1, 0, 0, 1, 45.5, 23.5)" fill-opacity="1">scatter plot of distance of TF in cobinding space</text></svg>